<svg width="354" height="245" viewBox="0 0 354 245" fill="none" xmlns="http://www.w3.org/2000/svg">
<path d="M250.618 160.289C272.297 115.122 253.256 60.9326 208.089 39.2535C162.923 17.5744 108.733 36.6149 87.054 81.7818C65.3749 126.949 84.4155 181.138 129.582 202.817C174.749 224.496 228.939 205.456 250.618 160.289Z" fill="#BA68C8"/>
<path opacity="0.116667" d="M236.28 148.341C253.865 107.607 235.098 60.3294 194.364 42.7441C153.629 25.1589 106.352 43.9252 88.7666 84.6597C71.1814 125.394 89.9477 172.672 130.682 190.257C171.417 207.842 218.694 189.076 236.28 148.341Z" fill="white"/>
<path opacity="0.233333" d="M219.721 141.906C236.104 106.901 221.007 65.2439 186.003 48.8615C150.999 32.4791 109.341 47.5752 92.9589 82.5797C76.5765 117.584 91.6727 159.242 126.677 175.624C161.682 192.006 203.339 176.91 219.721 141.906Z" fill="white"/>
<path opacity="0.35" d="M205.171 130.399C217.683 99.9527 203.144 65.1288 172.698 52.6172C142.253 40.1056 107.429 54.6442 94.917 85.0901C82.4054 115.536 96.944 150.36 127.39 162.872C157.836 175.383 192.66 160.845 205.171 130.399Z" fill="white"/>
<path opacity="0.466667" d="M189.403 121.93C199.653 96.7518 187.55 68.0319 162.372 57.7824C137.194 47.533 108.474 59.6352 98.2243 84.8135C87.9749 109.992 100.077 138.712 125.255 148.961C150.434 159.211 179.154 147.108 189.403 121.93Z" fill="white"/>
<path opacity="0.583333" d="M152.875 134.692C172.608 126.246 181.759 103.403 173.313 83.6694C164.868 63.9361 142.024 54.7854 122.291 63.2309C102.558 71.6764 93.407 94.5199 101.852 114.253C110.298 133.987 133.141 143.137 152.875 134.692Z" fill="white"/>
<path opacity="0.7" d="M151.485 114.72C162.61 103.596 162.61 85.5588 151.485 74.434C140.361 63.3093 122.324 63.3093 111.199 74.434C100.075 85.5588 100.075 103.596 111.199 114.72C122.324 125.845 140.361 125.845 151.485 114.72Z" fill="white"/>
<path opacity="0.05" d="M253.019 154.712C248.589 165.771 242.025 175.849 233.701 184.371C225.376 192.893 215.455 199.692 204.503 204.38C193.551 209.068 181.783 211.552 169.871 211.692C157.959 211.831 146.136 209.623 135.077 205.194C133.6 204.607 132.167 203.978 130.734 203.326C151.458 203.45 171.599 196.476 187.809 183.564C204.019 170.652 215.321 152.58 219.834 132.354C224.348 112.128 221.802 90.9656 212.619 72.3872C203.436 53.8087 188.171 38.9334 169.361 30.2351C184.137 30.3471 198.662 34.0635 211.676 41.0617C224.69 48.0599 235.8 58.1285 244.041 70.3936C252.282 82.6586 257.405 96.7495 258.966 111.443C260.526 126.137 258.478 140.99 252.997 154.712H253.019Z" fill="#455A64"/>
<path opacity="0.1" d="M223.533 57.0498C236.964 68.841 246.298 84.5971 250.186 102.041C254.074 119.485 252.316 137.714 245.164 154.093C238.013 170.472 225.839 184.153 210.402 193.159C194.965 202.165 177.064 206.03 159.286 204.195C176.123 201.644 191.88 194.338 204.705 183.135C217.529 171.932 226.887 157.299 231.677 140.958C236.467 124.617 236.49 107.248 231.743 90.8946C226.996 74.5411 217.677 59.8837 204.882 48.6471C201.228 45.443 197.322 42.5386 193.201 39.9622C204.396 43.4733 214.729 49.2947 223.533 57.0498Z" fill="#455A64"/>
<path opacity="0.5" d="M156.72 166.113C163.154 151.756 156.731 134.902 142.375 128.467C128.018 122.033 111.163 128.456 104.729 142.813C98.2948 157.17 104.717 174.024 119.074 180.458C133.431 186.893 150.286 180.47 156.72 166.113Z" fill="white"/>
<path opacity="0.5" d="M167.069 90.7285C176.774 78.3462 174.604 60.4404 162.222 50.7349C149.839 41.0294 131.934 43.1994 122.228 55.5817C112.523 67.9641 114.693 85.8698 127.075 95.5753C139.457 105.281 157.363 103.111 167.069 90.7285Z" fill="white"/>
<path opacity="0.5" d="M95.126 119.212C92.5463 118.18 90.3308 116.406 88.7596 114.114C87.1884 111.822 86.3323 109.116 86.2993 106.337C86.2664 103.559 87.0581 100.833 88.5745 98.5044C90.0908 96.176 92.2636 94.3495 94.818 93.256C97.3725 92.1626 100.194 91.8512 102.925 92.3613C105.657 92.8715 108.176 94.1802 110.163 96.1219C112.151 98.0637 113.518 100.551 114.092 103.27C114.665 105.989 114.42 108.817 113.386 111.396C112.001 114.853 109.299 117.619 105.874 119.085C102.45 120.551 98.584 120.597 95.126 119.212Z" fill="white"/>
<g opacity="0.1">
<path opacity="0.1" d="M349.921 34.0781C346.925 28.7803 339.282 19.9216 321.695 19.9216C303.413 19.9216 273.493 29.1711 232.674 47.4312L227.745 49.6025L225.835 50.4276C226.464 50.9269 227.094 51.4263 227.702 51.9908L228.614 51.6L233.564 49.4288C274.058 31.2989 303.695 22.1146 321.651 22.1146C338.109 22.1146 345.209 30.3001 347.967 35.142C360.126 56.5939 336.72 85.2325 269.802 130.915C265.879 133.608 261.863 136.293 257.752 138.971C239.904 150.695 220.624 162.442 200.279 173.949C179.413 185.783 158.244 196.878 138.312 206.409C133.861 208.581 129.475 210.6 125.176 212.554C81.9031 232.356 50.4201 242.387 31.552 242.387C15.0723 242.387 7.99404 234.201 5.23657 229.359C-6.48813 208.668 13.4873 182.786 74.1518 140.056L78.6028 136.93L79.4061 136.344C79.2541 135.562 79.1456 134.78 79.037 133.977L77.3435 135.171L73.001 138.298C11.1858 181.722 -8.96329 208.516 3.52133 230.423C6.49593 235.721 14.1604 244.58 31.7474 244.58C50.9195 244.58 82.7281 234.484 126.283 214.552C131.234 212.38 136.293 209.905 141.482 207.43C160.849 198.094 181.368 187.324 201.603 175.86C221.297 164.7 239.969 153.366 257.339 142.01C262.102 138.898 266.748 135.801 271.279 132.718C339.173 86.2313 362.753 56.7242 349.921 34.0781Z" fill="white"/>
</g>
<g opacity="0.1">
<path opacity="0.1" d="M266.111 125.531C263.788 127.116 261.443 128.679 259.076 130.264C239.991 142.987 219.19 155.776 197.044 168.413C174.441 181.201 151.448 193.143 130.17 203.153C127.564 204.39 124.98 205.584 122.44 206.757C93.2803 220.088 53.8506 235.982 31.5303 235.982C19.0239 235.982 13.4004 230.684 10.8818 226.233C1.48029 209.623 22.1505 184.719 77.8862 145.484L80.8608 143.313C81.0345 144.051 81.2516 144.79 81.4688 145.484L79.1455 147.135C24.5171 185.609 4.04234 209.645 12.7707 225.06C14.942 228.99 20.0661 233.745 31.5303 233.745C53.4598 233.745 92.5855 217.96 121.55 204.716L127.673 201.872C149.385 191.71 172.856 179.551 195.98 166.459C218.604 153.627 239.882 140.556 259.315 127.55C261.204 126.312 263.049 125.053 264.895 123.794C344.645 69.5128 346.23 49.6459 340.476 39.4845C338.305 35.5546 333.181 30.7995 321.716 30.7995C300.873 30.7995 264.244 45.2383 237.19 57.3538L234.606 58.5263C234.063 57.9618 233.542 57.3972 232.978 56.8544L236.3 55.378C263.549 43.1756 300.503 28.6283 321.716 28.6283C334.223 28.6283 339.846 33.9261 342.365 38.3772C348.531 49.2551 347.294 70.1424 266.111 125.531Z" fill="white"/>
</g>
<g opacity="0.2">
<path opacity="0.2" d="M262.442 120.146L259.532 122.122C239.47 135.67 217.388 149.284 193.831 162.616C169.751 176.251 145.325 188.888 122.918 199.266L119.748 200.721C79.3627 219.176 48.0969 229.359 31.5303 229.359C24.0178 229.359 18.9589 227.188 16.5488 222.846C9.36198 210.166 30.6618 186.543 81.686 150.63L82.8584 149.805C83.0972 150.522 83.3361 151.217 83.6183 151.976L82.9235 152.454C21.6077 195.64 14.0084 214.009 18.4378 221.847C20.4353 225.386 24.8429 227.188 31.4652 227.188C47.6626 227.188 78.6679 217.092 118.771 198.745L120.616 197.898C143.327 187.433 168.232 174.623 192.701 160.727C216.585 147.135 239.123 133.282 259.467 119.473L261.161 118.322C315.333 81.4112 341.497 54.4878 334.744 42.6112C332.746 39.072 328.339 37.2699 321.717 37.2699C306.344 37.2699 277.271 46.4977 239.839 63.3248L239.101 63.6505L237.668 61.9352L238.971 61.349C276.663 44.4567 306.062 35.1638 321.717 35.1638C329.229 35.1638 334.288 37.3351 336.698 41.6775C344.276 54.9438 319.306 81.3895 262.442 120.146Z" fill="white"/>
</g>
<g opacity="0.3">
<path opacity="0.3" d="M281.288 69.3174L280.854 70.5115C279.985 72.8782 275.817 79.9998 255.863 95.5242L254.799 96.3493C231.877 113.543 207.815 129.161 182.779 143.096C153.641 159.597 125.393 173.341 103.203 181.788L101.9 182.287C88.5037 187.303 78.0166 190.082 72.2628 190.082C71.5353 190.089 70.8087 190.031 70.0916 189.908L68.854 189.647L69.2882 188.453C70.0699 186.282 73.6307 180.051 90.371 166.524C90.7184 167.175 91.0875 167.805 91.4783 168.434C78.0166 179.291 73.4787 185.262 71.9371 187.976H72.2411C77.6692 187.976 87.5918 185.37 100.337 180.615L102.508 179.833C124.59 171.409 152.751 157.709 181.78 141.272C206.708 127.353 230.661 111.757 253.475 94.5906L255.19 93.2661C271.344 80.6078 276.533 73.8987 278.183 71.0326H277.814C272.321 71.0326 262.116 73.7467 249.002 78.6754C248.676 78.024 248.329 77.3727 247.96 76.743C261.421 71.6623 272.017 68.8614 277.814 68.8614C278.542 68.853 279.268 68.9112 279.985 69.0351L281.288 69.3174Z" fill="white"/>
</g>
<path d="M332.095 44.2395C337.762 54.2707 307.864 82.6705 259.489 115.652C239.513 129.287 216.368 143.682 191.269 157.904C165.214 172.625 140.179 185.457 117.598 195.77C65.6189 219.545 26.9708 230.119 21.369 220.24C16.0712 210.86 41.909 185.392 84.8778 155.103C86.072 158.012 87.3964 160.857 88.8729 163.636C72.5886 176.663 63.8601 186.825 66.2919 191.146C68.7237 195.466 83.2494 192.904 104.462 184.827C132.015 173.774 158.746 160.772 184.451 145.919C209.601 131.912 233.772 116.214 256.797 98.9331C275.99 84.1035 286.608 72.5091 283.959 67.8192C281.31 63.1293 267.284 65.9954 246.375 73.9204C244.768 71.2715 243.031 68.7094 241.185 66.2559C290.407 44.2178 326.58 34.7078 332.095 44.2395Z" fill="url(#paint0_linear)"/>
<defs>
<linearGradient id="paint0_linear" x1="206.479" y1="196.952" x2="156.037" y2="88.731" gradientUnits="userSpaceOnUse">
<stop stop-color="#455A64" stop-opacity="0"/>
<stop offset="0.3" stop-color="#90CAF9" stop-opacity="0.28"/>
<stop offset="0.99" stop-color="#27DCBE" stop-opacity="0.99"/>
<stop offset="1" stop-color="#BA68C8"/>
</linearGradient>
</defs>
</svg>
