<svg width="173" height="178" viewBox="0 0 173 178" fill="none" xmlns="http://www.w3.org/2000/svg">
<path d="M86.745 177.813C134.039 177.813 172.379 138.083 172.379 89.0738C172.379 40.0643 134.039 0.334229 86.745 0.334229C39.4508 0.334229 1.11133 40.0643 1.11133 89.0738C1.11133 138.083 39.4508 177.813 86.745 177.813Z" fill="#BA68C8"/>
<path opacity="0.7" d="M86.745 177.813C134.039 177.813 172.379 138.083 172.379 89.0738C172.379 40.0643 134.039 0.334229 86.745 0.334229C39.4508 0.334229 1.11133 40.0643 1.11133 89.0738C1.11133 138.083 39.4508 177.813 86.745 177.813Z" fill="white"/>
<path d="M77.1698 35.8172C76.5618 34.2872 75.9104 32.8022 75.2591 31.3172C74.0649 28.7297 60.9506 4.31728 60.0604 4.67728C54.8786 6.43077 49.8694 8.69093 45.1006 11.4273C50.3116 19.4372 56.847 27.1772 61.4717 35.5472C64.6184 41.7827 67.1848 48.3147 69.1362 55.0546C69.96 57.9293 71.1813 60.6652 72.7621 63.1771C73.566 64.4318 74.6048 65.5065 75.8169 66.3375C77.0291 67.1685 78.3899 67.7388 79.8187 68.0146C80.2763 68.1012 80.7478 68.0624 81.1865 67.902C82.207 67.452 82.4893 66.1021 82.5761 64.9546C82.9363 54.9424 81.0872 44.977 77.1698 35.8172Z" fill="#BA68C8"/>
<path d="M149.494 149.532C134.99 134.929 107.98 107.592 96.6243 95.2396C87.9393 85.9021 76.1278 81.7396 67.4428 72.7397C61.4936 66.5972 59.1704 57.7548 56.8037 49.4073C55.4793 44.7048 53.0475 29.8999 46.2515 31.5649C46.0344 33.9949 47.4457 39.5748 44.927 41.2173C42.4084 42.8598 40.5845 37.9549 39.6943 36.5374C38.8041 35.1199 31.0094 21.8449 31.1614 21.7324C28.7054 23.9025 26.3711 26.2162 24.17 28.6624C31.7042 43.0623 43.7111 66.1922 46.5772 70.9622C50.6374 78.0047 46.5772 85.7896 41.5182 78.2297C38.3916 73.5272 24.4088 55.1223 14.3126 41.8923C11.0008 47.3128 8.27054 53.0921 6.17041 59.1273C14.1171 71.2097 23.1712 86.1271 36.1335 92.8771C38.2441 94.1262 40.606 94.8495 43.0328 94.9901C45.4595 95.1307 47.8845 94.6846 50.1163 93.6871C53.0475 92.1571 55.3707 89.3446 58.5624 88.5796C62.5575 87.6121 66.4874 90.1546 69.8094 92.6521C76.6923 97.8046 83.4014 103.227 89.7631 109.055C93.0713 111.607 96.0937 114.536 98.7738 117.784C100.077 119.764 100.337 124.107 98.1658 125.727C98.1658 126.559 95.0393 126.424 94.605 126.312C93.4588 125.878 92.3991 125.23 91.4784 124.399C88.6341 122.419 85.5944 120.687 82.6632 118.842C80.4919 117.402 77.4956 115.94 75.2375 117.38C75.26 118.606 75.5327 119.813 76.038 120.922C76.5432 122.031 77.2694 123.017 78.1687 123.814C83.9084 130.3 90.2419 136.192 97.0802 141.409C98.3439 142.462 99.7673 143.291 101.292 143.862C102.058 144.145 102.876 144.239 103.682 144.138C104.489 144.036 105.261 143.741 105.939 143.277C107.285 142.242 107.915 140.397 109.369 139.519C110.075 139.164 110.857 139.002 111.64 139.049C112.423 139.096 113.181 139.351 113.842 139.789C116.925 141.612 119.27 145.122 122.223 147.304C127.268 151.651 131.992 156.382 136.358 161.457C141.115 157.953 145.516 153.958 149.494 149.532Z" fill="#90CAF9"/>
<path d="M86.745 177.814C97.4309 177.823 108.023 175.747 117.967 171.694C103.898 158.554 81.5123 137.944 74.8032 133.444C68.8323 129.439 64.7069 135.694 61.1895 139.902C59.4742 141.972 57.455 144.582 54.6758 145.167C50.6807 145.999 46.7942 141.702 46.6856 137.719C46.7965 134.567 48.0167 131.566 50.1162 129.282C52.1354 126.874 54.6975 124.782 55.718 121.789C57.3247 117.132 54.6975 112.137 52.1572 107.929C51.3405 106.11 49.8668 104.696 48.0535 103.992C45.448 103.407 43.2116 105.747 41.3444 107.682C39.1193 110.016 36.6422 112.077 33.9622 113.824C32.3407 115.065 30.3962 115.771 28.3821 115.849C26.1876 115.533 24.1287 114.563 22.4546 113.059C18.1427 109.995 14.3249 106.244 11.1425 101.945C9.38375 99.6945 7.66847 97.287 5.95319 94.9245C4.99784 93.597 1.0896 89.7046 1.0896 88.1746C1.0896 88.4671 1.0896 88.7596 1.0896 89.0521C1.08675 100.709 3.30034 112.253 7.60392 123.023C11.9075 133.794 18.2167 143.58 26.1711 151.823C34.1255 160.066 43.5692 166.604 53.9627 171.064C64.3562 175.523 75.4958 177.817 86.745 177.814Z" fill="#BA68C8"/>
<path d="M121.767 8.07471C121.354 12.8672 123.352 18.5372 129.953 27.6271C133.405 32.3746 137.009 37.0321 140.657 41.6446C143.501 45.2446 148.625 49.4971 148.582 54.5146C148.582 57.867 146.128 60.657 143.631 62.772C141.481 64.6089 139.161 66.2216 136.705 67.587C134.686 68.6895 132.363 70.107 132.232 72.492C132.102 74.877 134.23 76.182 136.054 77.2845C142.958 81.4695 149.964 85.4445 157.071 89.2094C160.154 90.8519 164.236 92.1569 166.82 94.5644C168.622 96.2519 169.73 98.6594 171.662 100.302C172.294 96.5895 172.556 92.8197 172.444 89.0519C172.44 71.9257 167.654 55.1665 158.661 40.7973C149.669 26.4282 136.855 15.0633 121.767 8.07471Z" fill="#90CAF9"/>
<path d="M121.224 61.1971C122.3 60.3755 123.424 59.624 124.59 58.9472C127.13 57.5297 130.083 55.9546 130.756 53.0522C131.625 49.1372 127.847 45.9422 124.525 43.8497L114.19 37.3022C112.471 36.3291 110.898 35.1012 109.521 33.6573C108.207 31.9876 107.172 30.1015 106.46 28.0773C104.362 22.8847 102.592 17.5559 101.162 12.1249C100.619 10.1224 99.5554 1.21241 96.5808 0.874911C89.7963 0.0755765 82.9434 0.128476 76.1711 1.03243C77.9081 0.919927 81.8598 11.7424 82.4243 13.3399C85.0628 20.384 87.1751 27.6278 88.7426 35.0073C90.0453 42.2522 98.7303 45.8747 104.202 49.8122C105.027 50.3018 105.698 51.0286 106.134 51.9047C106.415 53.0581 106.243 54.2796 105.657 55.3022C103.901 58.5506 101.966 61.6909 99.8594 64.7071C97.7597 67.7729 96.9023 71.5691 97.471 75.2821C98.5741 78.562 100.555 81.4493 103.181 83.607C121.463 101.742 140.787 119.202 158.092 138.192C161.785 132.451 164.816 126.281 167.124 119.809C167.754 118.054 157.766 109.707 156.464 108.559C150.579 103.722 143.957 99.7619 138.051 94.812L121.615 80.997C118.958 79.1984 116.897 76.5992 115.709 73.5496C115.365 72.0289 115.358 70.4471 115.689 68.9233C116.02 67.3995 116.68 65.9733 117.62 64.7521C118.644 63.3881 119.859 62.19 121.224 61.1971Z" fill="#BA68C8"/>
<g opacity="0.2">
<path opacity="0.2" d="M96.3419 142.332C96.9498 143.862 97.5795 145.324 98.2526 146.832C99.4467 149.419 112.561 173.832 113.451 173.472C118.64 171.737 123.651 169.476 128.411 166.722C123.2 158.712 116.665 150.972 112.04 142.624C108.884 136.385 106.317 129.845 104.375 123.094C103.549 120.217 102.32 117.48 100.728 114.972C99.9243 113.724 98.888 112.655 97.6798 111.828C96.4717 111.001 95.1162 110.433 93.693 110.157C93.2462 110.023 92.7718 110.023 92.3251 110.157C91.3046 110.584 91.0223 111.934 90.9355 113.082C90.5376 123.133 92.3879 133.144 96.3419 142.332Z" fill="white"/>
<path opacity="0.2" d="M24.0613 28.6849C38.5652 43.3098 65.5537 70.6247 76.931 82.9771C85.6159 92.3371 97.4274 96.4771 106.112 105.477C112.04 111.619 114.385 120.462 116.73 128.809C118.054 133.512 120.508 148.317 127.304 146.652C127.521 144.222 126.11 138.642 128.628 136.999C131.147 135.357 132.971 140.239 133.839 141.679C134.708 143.119 142.524 156.349 142.394 156.484C144.825 154.294 147.144 151.973 149.342 149.532C141.808 135.109 129.67 112.002 126.935 107.232C122.874 100.167 126.935 92.3821 131.972 99.9421C135.12 104.645 149.081 123.072 159.199 136.279C162.507 130.856 165.237 125.078 167.341 119.044C159.395 106.962 150.319 92.0446 137.378 85.2946C135.268 84.0456 132.906 83.3222 130.479 83.1816C128.052 83.041 125.627 83.4871 123.395 84.4846C120.464 86.0146 118.141 88.8271 114.949 89.5921C110.954 90.5596 107.024 87.9946 103.702 85.4971C96.8195 80.3446 90.1104 74.9222 83.7486 69.1172C80.8826 66.4847 76.9092 63.6497 74.738 60.3647C73.4352 58.3848 73.1747 54.0423 75.346 52.4223C75.346 51.5898 78.4508 51.7248 78.9068 51.8373C80.0424 52.2944 81.0984 52.9404 82.0334 53.7498C84.8777 55.7298 87.9174 57.4848 90.8486 59.3298C93.0198 60.7698 95.9944 62.2097 98.2742 60.7698C98.2544 59.544 97.9805 58.337 97.471 57.2306C96.9615 56.1242 96.2284 55.1443 95.3214 54.3573C89.6058 47.8552 83.2778 41.9609 76.4316 36.7624C75.1657 35.7071 73.7432 34.8713 72.2194 34.2874C71.449 34.0143 70.629 33.9251 69.8207 34.0264C69.0124 34.1277 68.2366 34.4169 67.5512 34.8724C66.2267 35.9074 65.5754 37.7749 64.1424 38.6299C63.4404 38.9953 62.6587 39.1646 61.8743 39.1212C61.0899 39.0778 60.33 38.8232 59.6696 38.3824C56.5864 36.5374 54.2198 33.0274 51.2886 30.8674C46.2245 26.5442 41.4781 21.8362 37.0887 16.7825C32.3705 20.2852 28.0059 24.2729 24.0613 28.6849Z" fill="white"/>
<path opacity="0.2" d="M86.7451 0.33424C76.062 0.333336 65.4727 2.4013 55.5227 6.43169C69.614 19.5941 91.9995 40.1815 98.7087 44.6815C104.68 48.6864 108.805 42.4315 112.322 38.2015C114.038 36.154 116.057 33.5215 118.836 32.9591C122.831 32.1041 126.718 36.424 126.826 40.4065C126.708 43.5548 125.48 46.549 123.374 48.8215C121.376 51.229 118.814 53.3214 117.772 56.2914C116.165 60.9714 118.814 65.9664 121.355 70.1513C122.171 71.9764 123.644 73.3978 125.458 74.1113C128.042 74.6963 130.3 72.3563 132.167 70.3988C134.386 68.0723 136.856 66.0188 139.528 64.2789C141.153 63.026 143.106 62.3122 145.13 62.2314C147.323 62.5532 149.38 63.5217 151.057 65.0214C155.369 68.0861 159.187 71.8373 162.369 76.1363C164.106 78.3863 165.843 80.8163 167.559 83.1787C168.514 84.4837 172.422 88.3762 172.422 89.9287C172.422 89.6362 172.422 89.3437 172.422 89.0512C172.419 77.3959 170.201 65.8553 165.893 55.0886C161.586 44.3219 155.274 34.54 147.318 26.3015C139.362 18.0631 129.917 11.5296 119.524 7.07404C109.131 2.61852 97.9925 0.328329 86.7451 0.33424Z" fill="white"/>
<path opacity="0.2" d="M51.7881 170.074C52.2007 165.282 50.2031 159.589 43.6025 150.522C40.1503 145.752 36.546 141.117 32.8983 136.504C30.054 132.904 24.9082 128.629 24.9733 123.612C24.9733 120.259 27.4268 117.492 29.9237 115.354C32.0747 113.525 34.3947 111.919 36.85 110.562C38.8475 109.437 41.1925 108.02 41.1925 105.657C41.1925 103.295 39.1949 101.967 37.3928 100.865C30.4883 96.6796 23.4751 92.6971 16.3535 88.9171C13.2703 87.2746 9.2101 85.9921 6.62632 83.5621C4.80248 81.8747 3.69514 79.4897 1.78445 77.8247C1.15506 81.5373 0.893147 85.3069 1.0028 89.0746C1.01665 106.216 5.81972 122.986 14.8318 137.36C23.8439 151.734 36.6795 163.096 51.7881 170.074Z" fill="white"/>
<path opacity="0.2" d="M52.2875 116.952C51.2188 117.784 50.0942 118.536 48.9221 119.202C46.4034 120.642 43.4288 122.194 42.7775 125.119C41.8872 129.034 45.6869 132.229 49.0089 134.322L59.344 140.869C61.0622 141.834 62.6349 143.055 64.0122 144.492C65.3263 146.161 66.3611 148.048 67.0736 150.072C69.1754 155.271 70.9451 160.607 72.3715 166.047C72.8925 168.049 73.9782 176.959 76.9311 177.297C80.1959 177.692 83.4797 177.895 86.7668 177.904C90.3164 177.9 93.8624 177.667 97.3842 177.207C95.6472 177.319 91.6738 166.497 91.131 164.877C88.4922 157.831 86.3728 150.587 84.791 143.209C83.5099 135.987 74.825 132.364 69.3534 128.404C68.5182 127.928 67.8438 127.197 67.421 126.312C67.2749 125.741 67.2419 125.146 67.324 124.562C67.4061 123.978 67.6016 123.418 67.8987 122.914C69.6596 119.681 71.5876 116.549 73.6742 113.532C75.7815 110.469 76.6467 106.673 76.0843 102.957C74.9811 99.677 73.0007 96.7897 70.3739 94.632C52.0704 76.3846 32.7463 58.9472 15.3764 39.9573C11.6874 45.7008 8.65624 51.8698 6.34402 58.3397C5.73607 60.0947 15.7238 68.4196 17.0265 69.5896C22.9106 74.4496 29.5329 78.4096 35.4169 83.3595L51.8749 97.1745C54.5201 98.9768 56.5785 101.565 57.7807 104.599C58.1204 106.124 58.125 107.708 57.7943 109.235C57.4636 110.761 56.806 112.192 55.87 113.419C54.8495 114.773 53.6424 115.963 52.2875 116.952Z" fill="white"/>
</g>
<path opacity="0.1" d="M171.423 102.394C165.192 135.199 108.001 165.282 62.2534 145.032C13.5959 123.454 4.43325 55.2571 28.2518 24.3647C18.2794 34.0343 10.6835 46.0353 6.09789 59.3661C1.5123 72.697 0.0700516 86.971 1.89151 100.997C3.71297 115.023 8.7453 128.394 16.5685 139.995C24.3918 151.595 34.779 161.088 46.8633 167.682C58.9476 174.275 72.3786 177.778 86.0352 177.898C99.6919 178.018 113.178 174.751 125.368 168.371C137.559 161.99 148.1 152.68 156.111 141.219C164.123 129.757 169.373 116.476 171.423 102.484V102.394Z" fill="black"/>
<path opacity="0.6" d="M137.549 53.4565C140.742 33.0708 127.383 13.8623 107.711 10.5532C88.0387 7.24415 69.5025 21.0875 66.3092 41.4733C63.116 61.8591 76.4749 81.0676 96.1471 84.3766C115.819 87.6857 134.356 73.8423 137.549 53.4565Z" fill="white"/>
<path opacity="0.6" d="M147.236 104.734C156.361 104.734 163.759 97.0685 163.759 87.6121C163.759 78.1557 156.361 70.4897 147.236 70.4897C138.11 70.4897 130.713 78.1557 130.713 87.6121C130.713 97.0685 138.11 104.734 147.236 104.734Z" fill="white"/>
<path opacity="0.1" d="M1.11133 89.0744C1.11761 108.381 7.19805 127.159 18.4309 142.561C29.6637 157.964 45.4363 169.151 63.3577 174.427C81.279 179.704 100.372 178.781 117.742 171.8C135.111 164.818 149.811 152.158 159.612 135.739C157.679 138.867 133.448 178.354 73.5873 166.992C11.251 155.157 1.11132 89.0969 2.17523 75.147C1.46821 79.7533 1.11247 84.4102 1.11133 89.0744Z" fill="black"/>
</svg>
