<svg width="178" height="126" viewBox="0 0 178 126" fill="none" xmlns="http://www.w3.org/2000/svg">
<path d="M126.277 82.1335C137.201 58.9896 127.607 31.2224 104.849 20.1138C82.091 9.00524 54.787 18.7618 43.8637 41.9057C32.9404 65.0497 42.5342 92.8168 65.2921 103.925C88.05 115.034 115.354 105.277 126.277 82.1335Z" fill="#BA68C8"/>
<path opacity="0.116667" d="M119.052 76.0108C127.913 55.138 118.457 30.9126 97.9323 21.9017C77.4076 12.8909 53.5862 22.5069 44.7257 43.3797C35.8651 64.2525 45.3208 88.478 65.8454 97.4888C86.37 106.5 110.191 96.8836 119.052 76.0108Z" fill="white"/>
<path opacity="0.233333" d="M110.71 72.7129C118.964 54.7763 111.358 33.4307 93.7204 25.0362C76.0829 16.6417 55.0933 24.3771 46.8388 42.3138C38.5843 60.2504 46.1908 81.596 63.8282 89.9905C81.4657 98.385 102.455 90.6495 110.71 72.7129Z" fill="white"/>
<path opacity="0.35" d="M103.378 66.817C109.682 51.2163 102.357 33.3723 87.016 26.9612C71.6755 20.5502 54.129 27.9999 47.8248 43.6006C41.5207 59.2013 48.8461 77.0453 64.1867 83.4564C79.5273 89.8674 97.0738 82.4177 103.378 66.817Z" fill="white"/>
<path opacity="0.466667" d="M95.4328 62.4777C100.597 49.576 94.4992 34.8597 81.8128 29.6078C69.1263 24.3558 54.6554 30.5571 49.4911 43.4588C44.3268 56.3604 50.4246 71.0767 63.1111 76.3287C75.7975 81.5806 90.2684 75.3793 95.4328 62.4777Z" fill="white"/>
<path opacity="0.583333" d="M77.0278 69.0169C86.9707 64.6894 91.5813 52.9842 87.326 42.8726C83.0706 32.7611 71.5606 28.0722 61.6177 32.3998C51.6748 36.7273 47.0642 48.4325 51.3195 58.5441C55.5749 68.6556 67.0849 73.3445 77.0278 69.0169Z" fill="white"/>
<path opacity="0.7" d="M76.328 58.7833C81.9333 53.0829 81.9333 43.8407 76.328 38.1403C70.7226 32.4399 61.6346 32.4399 56.0293 38.1403C50.4239 43.8407 50.4239 53.0829 56.0293 58.7833C61.6346 64.4837 70.7226 64.4837 76.328 58.7833Z" fill="white"/>
<path opacity="0.05" d="M127.486 79.2748C125.255 84.9415 121.947 90.1056 117.753 94.4724C113.558 98.8391 108.559 102.323 103.041 104.725C97.5228 107.127 91.5933 108.4 85.5912 108.472C79.5891 108.543 73.632 107.412 68.0598 105.142C67.3159 104.841 66.5939 104.519 65.8718 104.185C76.3137 104.248 86.4622 100.675 94.6298 94.0588C102.797 87.4426 108.492 78.1824 110.766 67.8183C113.04 57.4541 111.757 46.6105 107.131 37.0908C102.504 27.571 94.8119 19.9488 85.3342 15.4917C92.7793 15.5491 100.098 17.4534 106.656 21.0393C113.213 24.6253 118.811 29.7845 122.963 36.0692C127.115 42.3539 129.697 49.5742 130.483 57.1035C131.269 64.6327 130.237 72.2433 127.475 79.2748H127.486Z" fill="#455A64"/>
<path opacity="0.1" d="M112.63 29.2319C119.397 35.2739 124.1 43.3474 126.059 52.2859C128.018 61.2244 127.132 70.5649 123.529 78.9576C119.926 87.3504 113.792 94.3607 106.013 98.9755C98.2351 103.59 89.2155 105.571 80.258 104.63C88.7413 103.323 96.6809 99.5793 103.143 93.839C109.605 88.0986 114.32 80.6006 116.733 72.2274C119.147 63.8541 119.158 54.954 116.767 46.5743C114.375 38.1946 109.679 30.684 103.232 24.9263C101.391 23.2845 99.4227 21.7962 97.3464 20.4761C102.987 22.2752 108.194 25.2581 112.63 29.2319Z" fill="#455A64"/>
<path opacity="0.5" d="M78.9657 85.1176C82.2076 77.761 78.9715 69.1246 71.7376 65.8277C64.5037 62.5307 56.0113 65.8218 52.7694 73.1784C49.5274 80.535 52.7635 89.1713 59.9975 92.4683C67.2314 95.7652 75.7237 92.4742 78.9657 85.1176Z" fill="white"/>
<path opacity="0.5" d="M84.1797 46.4891C89.0699 40.1443 87.9765 30.9692 81.7375 25.996C75.4985 21.0228 66.4765 22.1347 61.5862 28.4795C56.696 34.8244 57.7894 43.9995 64.0284 48.9727C70.2674 53.9459 79.2894 52.834 84.1797 46.4891Z" fill="white"/>
<path opacity="0.5" d="M47.9299 61.0853C46.6301 60.5562 45.5138 59.647 44.7221 58.4726C43.9305 57.2983 43.4991 55.9115 43.4825 54.4878C43.4659 53.0641 43.8648 51.6673 44.6289 50.4742C45.3929 49.2811 46.4877 48.3452 47.7748 47.7849C49.0619 47.2246 50.4835 47.0651 51.8597 47.3265C53.236 47.5879 54.5051 48.2585 55.5066 49.2534C56.508 50.2484 57.1969 51.5231 57.4859 52.9162C57.775 54.3094 57.6513 55.7584 57.1305 57.08C56.4324 58.8517 55.071 60.2688 53.3457 61.0199C51.6203 61.771 49.6723 61.7945 47.9299 61.0853Z" fill="white"/>
<g opacity="0.1">
<path opacity="0.1" d="M176.312 17.4609C174.803 14.7463 170.952 10.207 162.09 10.207C152.879 10.207 137.803 14.9465 117.236 24.3032L114.752 25.4158L113.79 25.8385C114.107 26.0944 114.424 26.3503 114.731 26.6396L115.19 26.4393L117.684 25.3267C138.088 16.0369 153.021 11.3307 162.068 11.3307C170.361 11.3307 173.938 15.5251 175.328 18.0061C181.454 28.9982 169.661 43.6729 135.943 67.0812C133.967 68.4608 131.943 69.8367 129.872 71.2088C120.879 77.2167 111.164 83.2356 100.913 89.1322C90.3998 95.1956 79.7333 100.881 69.6903 105.765C67.4475 106.878 65.2377 107.912 63.0715 108.914C41.268 119.06 25.4048 124.2 15.8979 124.2C7.59436 124.2 4.0279 120.006 2.63851 117.525C-3.26913 106.922 6.79576 93.6603 37.3623 71.7651L39.605 70.163L40.0098 69.8626C39.9332 69.4621 39.8786 69.0616 39.8239 68.6499L38.9705 69.2618L36.7825 70.8639C5.63612 93.1152 -4.51627 106.844 1.77427 118.07C3.27306 120.785 7.13491 125.324 15.9964 125.324C25.6565 125.324 41.6837 120.15 63.6294 109.937C66.1238 108.825 68.6728 107.556 71.2875 106.288C81.0461 101.504 91.3844 95.9856 101.581 90.1112C111.503 84.3927 120.912 78.5851 129.664 72.7664C132.063 71.1717 134.404 69.5845 136.687 68.0046C170.897 44.1847 182.778 29.065 176.312 17.4609Z" fill="white"/>
</g>
<g opacity="0.1">
<path opacity="0.1" d="M134.084 64.3219C132.914 65.1341 131.732 65.9351 130.54 66.7473C120.923 73.2669 110.443 79.8199 99.2838 86.295C87.8952 92.848 76.3096 98.9671 65.5884 104.096C64.2755 104.73 62.9737 105.342 61.6937 105.943C47.0012 112.774 27.134 120.918 15.8876 120.918C9.5861 120.918 6.75261 118.203 5.48356 115.923C0.746507 107.411 11.1615 94.6504 39.2447 74.5464L40.7434 73.4338C40.831 73.8121 40.9404 74.1904 41.0498 74.5464L39.8792 75.3919C12.3539 95.1066 2.03743 107.423 6.43534 115.322C7.52935 117.336 10.1112 119.772 15.8876 119.772C26.9371 119.772 46.6511 111.684 61.2451 104.897L64.3303 103.44C75.2703 98.2328 87.0965 92.0025 98.7477 85.2937C110.147 78.7185 120.869 72.0208 130.66 65.3566C131.612 64.7224 132.542 64.0772 133.472 63.4319C173.654 35.6178 174.453 25.4378 171.554 20.231C170.46 18.2173 167.878 15.7808 162.102 15.7808C151.599 15.7808 133.143 23.1793 119.512 29.3874L118.21 29.9882C117.937 29.6989 117.674 29.4097 117.39 29.1315L119.063 28.375C132.793 22.1224 151.413 14.6682 162.102 14.6682C168.403 14.6682 171.237 17.3829 172.506 19.6636C175.613 25.2376 174.989 35.9404 134.084 64.3219Z" fill="white"/>
</g>
<g opacity="0.2">
<path opacity="0.2" d="M132.235 61.5632L130.769 62.5756C120.661 69.518 109.535 76.4938 97.6647 83.3249C85.5322 90.3118 73.2246 96.787 61.9344 102.105L60.3372 102.85C39.9886 112.307 24.2349 117.525 15.8876 117.525C12.1023 117.525 9.55331 116.413 8.33896 114.188C4.7178 107.69 15.45 95.5854 41.1592 77.1836L41.7499 76.7608C41.8703 77.1279 41.9906 77.484 42.1329 77.8734L41.7828 78.1181C10.888 100.247 7.05897 109.659 9.29074 113.676C10.2972 115.489 12.5181 116.413 15.8548 116.413C24.0161 116.413 39.6385 111.239 59.8448 101.838L60.7748 101.404C72.2181 96.0415 84.7663 89.4774 97.0958 82.357C109.13 75.3923 120.486 68.2942 130.737 61.2183L131.59 60.6286C158.885 41.715 172.068 27.9192 168.666 21.8334C167.659 20.0199 165.438 19.0965 162.102 19.0965C154.356 19.0965 139.707 23.8249 120.847 32.4473L120.475 32.6142L119.753 31.7353L120.409 31.4349C139.401 22.7791 154.214 18.0173 162.102 18.0173C165.887 18.0173 168.436 19.1299 169.65 21.355C173.469 28.1528 160.887 41.7039 132.235 61.5632Z" fill="white"/>
</g>
<g opacity="0.3">
<path opacity="0.3" d="M141.731 35.518L141.513 36.1299C141.075 37.3426 138.974 40.9918 128.921 48.9466L128.384 49.3694C116.835 58.1794 104.711 66.1822 92.0962 73.3228C77.4146 81.7782 63.1815 88.8207 52.0008 93.1486L51.3444 93.4045C44.5944 95.9745 39.3103 97.3986 36.4112 97.3986C36.0446 97.4021 35.6785 97.3723 35.3172 97.3096L34.6936 97.1761L34.9124 96.5642C35.3062 95.4516 37.1004 92.2586 45.5352 85.3273C45.7103 85.6611 45.8962 85.9837 46.0931 86.3064C39.3103 91.8692 37.0238 94.9287 36.2471 96.3194H36.4003C39.1353 96.3194 44.1349 94.9843 50.5567 92.5478L51.6507 92.1473C62.7768 87.8306 76.966 80.8103 91.5929 72.3882C104.153 65.2561 116.222 57.2644 127.717 48.4682L128.581 47.7895C136.721 41.3033 139.335 37.8655 140.167 36.3969H139.981C137.213 36.3969 132.071 37.7876 125.463 40.3131C125.299 39.9793 125.124 39.6456 124.938 39.3229C131.721 36.7195 137.06 35.2843 139.981 35.2843C140.347 35.2801 140.714 35.3098 141.075 35.3733L141.731 35.518Z" fill="white"/>
</g>
<path d="M167.33 22.6687C170.185 27.8088 155.121 42.3611 130.746 59.2609C120.682 66.2478 109.019 73.6241 96.3727 80.9114C83.2447 88.4546 70.6307 95.0298 59.253 100.314C33.0625 112.497 13.5892 117.915 10.7666 112.853C8.09726 108.047 21.1159 94.9964 42.7664 79.4762C43.3681 80.967 44.0354 82.4245 44.7793 83.8485C36.5743 90.5239 32.1763 95.7307 33.4016 97.9447C34.6269 100.159 41.9458 98.8459 52.6343 94.7072C66.5173 89.0434 79.9858 82.3809 92.9375 74.7701C105.61 67.5928 117.789 59.549 129.39 50.6942C139.061 43.0954 144.411 37.1543 143.076 34.7511C141.741 32.348 134.674 33.8166 124.139 37.8774C123.329 36.5201 122.454 35.2073 121.524 33.9501C146.325 22.6576 164.551 17.7846 167.33 22.6687Z" fill="url(#paint0_linear_1192:47151)"/>
<defs>
<linearGradient id="paint0_linear_1192:47151" x1="104.037" y1="100.92" x2="77.9111" y2="45.8031" gradientUnits="userSpaceOnUse">
<stop stop-color="#455A64" stop-opacity="0"/>
<stop offset="0.3" stop-color="#90CAF9" stop-opacity="0.28"/>
<stop offset="0.99" stop-color="#27DCBE" stop-opacity="0.99"/>
<stop offset="1" stop-color="#BA68C8"/>
</linearGradient>
</defs>
</svg>
