<svg width="391" height="259" viewBox="0 0 391 259" fill="none" xmlns="http://www.w3.org/2000/svg">
<path d="M61.509 115.413C61.6919 112.545 62.6578 109.755 64.3286 107.268C65.9994 104.78 68.3283 102.665 71.127 101.094C72.0064 100.583 73.0065 100.245 74.0557 100.105C75.1049 99.9644 76.1773 100.025 77.196 100.282L118.86 114.205L98.4691 144.267L63.693 120.318C62.931 119.689 62.3402 118.923 61.9627 118.075C61.5852 117.227 61.4302 116.318 61.509 115.413Z" fill="#F5F5F5"/>
<path d="M84.5886 102.627C83.515 102.417 82.403 102.397 81.3201 102.567C80.2371 102.738 79.2057 103.095 78.2886 103.619C75.1967 105.354 72.6238 107.69 70.7778 110.438C68.9319 113.185 67.8647 116.267 67.6626 119.434C67.6056 120.359 67.7617 121.284 68.1221 122.157C68.4825 123.03 69.04 123.833 69.7626 124.52L66.3816 122.176L63.6726 120.246C62.9257 119.623 62.3454 118.868 61.9719 118.034C61.5984 117.199 61.4407 116.305 61.5096 115.413C61.6925 112.545 62.6583 109.755 64.3292 107.268C66 104.78 68.3289 102.665 71.1276 101.094C72.007 100.583 73.0071 100.245 74.0563 100.105C75.1055 99.9644 76.1779 100.025 77.1966 100.282L80.7246 101.418L84.5886 102.627Z" fill="#BA68C8"/>
<path opacity="0.1" d="M62.3706 110.994L106.261 132.743L98.4697 144.267L63.6936 120.318C62.9317 119.688 62.3408 118.922 61.9633 118.074C61.5858 117.227 61.4309 116.318 61.5096 115.412C61.527 113.91 61.8175 112.419 62.3706 110.994Z" fill="#455A64"/>
<path d="M109.599 115.413C105.401 117.766 101.907 120.935 99.4008 124.663C96.8944 128.392 95.4458 132.575 95.1723 136.873C95.1723 144.772 101.64 147.964 109.599 144.087C113.798 141.734 117.291 138.565 119.798 134.837C122.304 131.108 123.753 126.925 124.026 122.627C124.026 114.584 117.558 111.391 109.599 115.413Z" fill="#E0E0E0"/>
<path d="M74.529 81.6164C74.7135 78.7518 75.6802 75.9647 77.351 73.4804C79.0219 70.996 81.3499 68.8841 84.1471 67.3154C85.0246 66.8008 86.0248 66.461 87.0747 66.3206C88.1247 66.1802 89.1979 66.2428 90.2161 66.5039L131.88 80.4261L111.447 110.597L76.713 86.5577C75.9477 85.923 75.3552 85.151 74.9776 84.2968C74.6001 83.4426 74.4469 82.5273 74.529 81.6164Z" fill="#F5F5F5"/>
<path d="M97.6086 68.9204C96.5517 68.716 95.4574 68.6984 94.3923 68.869C93.3272 69.0395 92.3138 69.3945 91.4136 69.9123C88.3171 71.6408 85.7392 73.9723 83.8892 76.7172C82.0392 79.4622 80.9694 82.5433 80.7666 85.7101C80.7073 86.6349 80.8624 87.5607 81.2228 88.4337C81.5833 89.3067 82.1421 90.1095 82.8666 90.7957L79.4856 88.4693L76.7766 86.5396C76.0293 85.9004 75.454 85.1284 75.0912 84.2779C74.7284 83.4273 74.5869 82.5189 74.6766 81.6164C74.8611 78.7518 75.8278 75.9647 77.4986 73.4804C79.1694 70.996 81.4975 68.8841 84.2946 67.3154C85.1722 66.8008 86.1724 66.461 87.2223 66.3206C88.2723 66.1802 89.3455 66.2428 90.3636 66.5039L93.8917 67.622L97.6086 68.9204Z" fill="#BA68C8"/>
<path opacity="0.1" d="M75.4114 77.2695L119.281 99.0365L111.489 110.542L76.7134 86.557C75.9661 85.9178 75.3908 85.1458 75.028 84.2953C74.6652 83.4447 74.5237 82.5362 74.6134 81.6337C74.6203 80.1527 74.8894 78.6811 75.4114 77.2695Z" fill="#455A64"/>
<path d="M112.43 111.077C106.795 108.284 106.792 99.2292 112.423 90.8538C118.053 82.4784 127.186 77.9536 132.821 80.7474C138.456 83.5411 138.459 92.5955 132.828 100.971C127.197 109.346 118.065 113.871 112.43 111.077Z" fill="#E0E0E0"/>
<path d="M329.344 189.874L282.304 143.22L270.544 67.4048L247.024 55.7368L152.922 102.409L329.344 189.874Z" fill="#90CAF9"/>
<path opacity="0.6" d="M329.344 189.874L282.304 143.22L270.544 67.4048L247.024 55.7368L152.922 102.409L329.344 189.874Z" fill="white"/>
<path d="M247.023 55.7368L270.543 67.4048L176.442 114.059L152.922 102.409L247.023 55.7368Z" fill="#BA68C8"/>
<path opacity="0.3" d="M247.023 55.7368L270.543 67.4048L176.442 114.059L152.922 102.409L247.023 55.7368Z" fill="#455A64"/>
<path d="M117.621 73.1033C125.853 69.0276 133.476 67.8373 139.734 69.1358C141.316 69.445 142.836 69.9492 144.249 70.6326L145.173 71.0654L286.483 141.146C309.684 152.655 329.431 168.662 344.149 187.89L389.593 247.222L380.5 258.186L310.675 248.556C288.928 245.572 268.003 239.191 248.934 229.729L90.0692 150.974C84.5042 148.017 80.7661 142.444 79.6951 134.744C79.4906 133.175 79.3854 131.597 79.3802 130.019C79.4012 109.045 96.5162 83.581 117.621 73.1033Z" fill="#BA68C8"/>
<path opacity="0.9" d="M117.621 73.1033C125.853 69.0276 133.476 67.8373 139.734 69.1358C141.316 69.445 142.836 69.9492 144.249 70.6326L145.173 71.0654L286.483 141.146C309.684 152.655 329.431 168.662 344.149 187.89L389.593 247.222L380.5 258.186L310.675 248.556C288.928 245.572 268.003 239.191 248.934 229.729L90.0692 150.974C84.5042 148.017 80.7661 142.444 79.6951 134.744C79.4906 133.175 79.3854 131.597 79.3802 130.019C79.4012 109.045 96.5162 83.581 117.621 73.1033Z" fill="white"/>
<path d="M108.255 159.939C102.69 156.981 98.9522 151.409 97.8812 143.708C97.6766 142.139 97.5715 140.562 97.5662 138.983C97.5662 118.046 114.681 92.5817 135.786 82.122C144.018 78.0283 151.62 76.838 157.878 78.1364C159.461 78.4424 160.982 78.9468 162.393 79.6333L144.249 70.6163C142.836 69.9328 141.316 69.4286 139.734 69.1194C133.434 67.821 125.853 69.0112 117.621 73.0869C96.6212 83.5647 79.4012 109.029 79.4012 129.966C79.4064 131.545 79.5116 133.122 79.7162 134.691C80.7872 142.428 84.5252 148 90.0902 150.922L108.255 159.939Z" fill="#90CAF9"/>
<path d="M375.439 236.618C376.964 235.781 378.755 235.371 380.563 235.446L385.687 242.137L389.593 247.24C390.42 248.326 390.891 249.584 390.956 250.88C391.021 252.177 390.677 253.465 389.961 254.607C389.245 255.75 388.184 256.706 386.888 257.374C385.593 258.042 384.111 258.398 382.6 258.403C381.891 258.394 381.185 258.309 380.5 258.151L374.536 257.339L366.493 256.221C365.774 255.301 365.334 254.241 365.212 253.137C365.212 252.741 365.212 252.308 365.212 251.857C365.404 248.806 366.429 245.836 368.206 243.189C369.983 240.541 372.461 238.29 375.439 236.618Z" fill="#90CAF9"/>
<path opacity="0.6" d="M282.304 172.381C261.661 161.903 161.911 112.544 102.879 83.3646C107.175 79.3511 112.127 75.8946 117.579 73.1033C125.811 69.0276 133.434 67.8373 139.692 69.1358C141.274 69.445 142.794 69.9492 144.207 70.6326L145.131 71.0654L286.441 141.146C309.642 152.655 329.389 168.662 344.107 187.89L387.997 245.13L389.593 247.24C390.508 248.421 390.997 249.807 391 251.225C391.008 252.975 390.259 254.665 388.9 255.968C393.1 248.196 355.783 227.312 335.119 210.559C314.455 193.805 293.917 178.278 282.304 172.381Z" fill="white"/>
<path d="M302.947 212.561C308.869 202.102 317.815 193.355 327.496 188.576C331.777 186.32 336.653 185.03 341.671 184.825C342.49 185.853 343.351 186.845 344.149 187.891L363.049 212.561L360.76 212.381C360.473 212.363 360.185 212.363 359.899 212.381C357.159 212.482 354.497 213.191 352.171 214.437C346.215 217.686 341.361 222.227 338.101 227.602L336.757 229.694L301.687 214.816L302.947 212.561Z" fill="#90CAF9"/>
<path d="M328.945 190.722C333.323 188.324 338.457 187.146 343.645 187.35L361.033 209.91C357.402 209.753 353.805 210.573 350.743 212.255C344.311 215.72 339.07 220.594 335.56 226.375L305.551 213.643C310.969 204.067 319.432 195.429 328.945 190.722Z" fill="#455A64"/>
<path opacity="0.1" d="M328.945 190.722C333.323 188.324 338.457 187.146 343.645 187.35L361.033 209.91C359.782 209.827 358.524 209.894 357.295 210.109C354.922 207.836 352.528 204.193 348.433 204.843C343.687 205.6 340.033 209.712 336.169 211.804C335.165 212.396 334.029 212.804 332.833 213.003C331.637 213.201 330.406 213.186 329.218 212.958C327.174 212.202 325.331 211.098 323.8 209.712C323.031 209.026 322.084 208.505 321.037 208.191C319.99 207.878 318.872 207.781 317.773 207.908C315.421 208.449 314.497 210.397 313.573 212.11C312.752 213.433 312.05 214.808 311.473 216.222L305.467 213.661C310.969 204.067 319.432 195.429 328.945 190.722Z" fill="white"/>
<path opacity="0.05" d="M343.813 200.173L343.666 200.263C341.753 201.357 339.769 202.357 337.723 203.257C336.022 204.014 333.754 204.645 332.326 203.545C330.898 202.445 331.213 200.317 329.701 199.415C329.065 199.097 328.336 198.941 327.601 198.965C324.172 199.002 320.801 199.73 317.76 201.089C314.718 202.448 312.09 204.401 310.087 206.791C314.86 200.246 321.328 194.735 328.987 190.687C333.365 188.289 338.499 187.111 343.687 187.315L353.851 200.552C350.176 198.225 347.572 198.117 343.813 200.173Z" fill="white"/>
<path opacity="0.15" d="M79.7164 134.708C79.5118 133.139 79.4067 131.561 79.4014 129.983C79.4276 128.132 79.5679 126.284 79.8214 124.446C128.898 148.684 248.641 207.854 270.544 219.035C298.243 233.173 366.409 253.299 383.944 254.021C388.144 254.219 389.614 251.46 389.509 247.15V247.24C390.333 248.321 390.803 249.572 390.872 250.862C390.94 252.153 390.604 253.435 389.898 254.576C389.192 255.716 388.142 256.673 386.858 257.346C385.575 258.02 384.104 258.385 382.6 258.403C381.891 258.394 381.185 258.309 380.5 258.15L310.675 248.52C288.928 245.536 268.003 239.155 248.935 229.693L90.0694 150.938C84.5254 148.017 80.7874 142.462 79.7164 134.708Z" fill="#BA68C8"/>
<path opacity="0.6" d="M380.5 258.151L374.536 257.339L366.493 256.221C365.774 255.301 365.334 254.241 365.212 253.138C365.212 252.741 365.212 252.308 365.212 251.857C365.212 251.406 365.212 251.136 365.212 250.775C371.322 252.335 377.585 253.416 383.923 254.003C388.123 254.202 389.593 251.442 389.488 247.132V247.222C390.316 248.302 390.791 249.553 390.863 250.845C390.936 252.137 390.602 253.421 389.898 254.564C389.194 255.707 388.145 256.666 386.861 257.342C385.577 258.017 384.105 258.384 382.6 258.403C381.955 258.397 381.313 258.325 380.689 258.187L380.5 258.151Z" fill="#455A64"/>
<path d="M-0.00012207 178.224L94.1011 131.552L270.543 219.035L176.442 201.542L23.52 195.717L-0.00012207 184.049V178.224Z" fill="#90CAF9"/>
<path opacity="0.6" d="M-0.00012207 178.224L94.1011 131.552L270.543 219.035L176.442 201.542L23.52 195.717L-0.00012207 184.049V178.224Z" fill="white"/>
<path d="M176.442 201.541V195.716L270.543 219.034L176.442 201.541Z" fill="#BA68C8"/>
<path d="M176.442 195.718L23.5201 189.875V195.718L176.442 201.543V195.718Z" fill="#BA68C8"/>
<path opacity="0.3" d="M176.442 195.718L23.5201 189.875V195.718L176.442 201.543V195.718Z" fill="white"/>
<path d="M117.622 143.22L23.5204 189.874L0.000343323 178.224L94.1015 131.552L117.622 143.22Z" fill="#BA68C8"/>
<path opacity="0.3" d="M117.622 143.22L23.5204 189.874L0.000343323 178.224L94.1015 131.552L117.622 143.22Z" fill="#455A64"/>
<path d="M-4.57764e-05 178.225L23.52 189.875V195.718L-4.57764e-05 184.05V178.225Z" fill="#BA68C8"/>
<path opacity="0.5" d="M-4.57764e-05 178.225L23.52 189.875V195.718L-4.57764e-05 184.05V178.225Z" fill="#455A64"/>
<path d="M99.9606 0.373047L111.721 6.21605L170.542 93.681L164.683 96.5664L117.496 73.1763L94.1016 3.25847L99.9606 0.373047Z" fill="#90CAF9"/>
<path d="M164.683 96.5658L117.496 73.1757L94.1015 3.25781L105.862 9.08279L164.683 96.5658Z" fill="#BA68C8"/>
<path opacity="0.5" d="M111.72 6.21604L105.861 9.08344L94.1014 3.25847L99.9605 0.373047L111.72 6.21604Z" fill="white"/>
<path opacity="0.6" d="M105.862 9.08279L164.683 96.5658L117.496 73.1757L94.1015 3.25781L105.862 9.08279Z" fill="#455A64"/>
<path opacity="0.8" d="M80.1995 77.1267C84.8825 70.1656 87.4235 57.2894 73.5425 49.4265C59.6615 41.5637 48.6154 45.964 48.6154 45.964C48.6154 45.964 53.8444 49.5708 53.6974 53.0333C53.6974 53.0333 38.6404 41.6719 27.3424 46.469C27.3424 46.469 36.5824 50.3643 35.2594 53.8449C33.9364 57.3254 17.8924 50.9594 12.3273 44.5574C12.3273 44.5574 11.5294 50.1659 18.0604 57.0729C24.5914 63.9799 38.5354 69.4984 38.5354 69.4984C36.8512 70.0881 35.0352 70.3488 33.2192 70.2614C31.4031 70.1741 29.6325 69.741 28.0354 68.9934C28.0354 68.9934 36.7924 80.7335 48.9304 85.765C54.4319 88.0756 60.7616 88.4666 66.5916 86.856C72.4215 85.2455 77.2986 81.7585 80.1995 77.1267Z" fill="#90CAF9"/>
<path opacity="0.8" d="M73.3114 73.646C77.6165 67.244 70.3294 57.6679 55.8814 58.7861C55.8814 58.7861 62.5384 62.5912 60.5014 65.8554C58.4644 69.1195 44.9194 62.8617 42.1894 60.9862C42.1894 60.9862 46.7464 70.9951 55.6924 75.4134C62.0974 78.6054 69.2794 79.6694 73.3114 73.646Z" fill="white"/>
<path opacity="0.8" d="M68.1666 109.244C63.4836 116.205 51.8076 124.537 36.8975 118.135C21.9875 111.733 20.9585 101.327 20.9585 101.327C20.9585 101.327 27.2585 103.383 30.6185 101.58C30.6185 101.58 11.7185 96.0615 10.8365 85.2591C10.8365 85.2591 19.3625 90.1824 22.2395 87.4592C25.1165 84.7361 10.6265 75.9896 1.38644 75.0518C1.38644 75.0518 6.63646 71.6614 16.8845 73.0501C27.1325 74.4387 40.1945 83.9787 40.1945 83.9787C40.3572 82.3518 40.1135 80.7139 39.4797 79.1744C38.8459 77.6349 37.8367 76.2294 36.5195 75.0518C45.3121 75.3099 53.8657 77.5758 61.2996 81.6162C66.3882 84.5609 69.9477 89.0863 71.2286 94.2397C72.5094 99.393 71.4117 104.772 68.1666 109.244Z" fill="#90CAF9"/>
<path opacity="0.8" d="M61.2993 105.908C56.9943 112.292 43.7013 111.661 37.6113 100.353C37.6113 100.353 44.7723 103.419 47.0403 100.245C49.3083 97.0711 36.2253 90.1641 32.9703 89.082C32.9703 89.082 45.3603 87.4589 54.2853 91.8953C60.6483 95.0693 65.2893 99.8844 61.2993 105.908Z" fill="white"/>
</svg>
