<svg width="26" height="26" viewBox="0 0 26 26" fill="none" xmlns="http://www.w3.org/2000/svg">
<g clip-path="url(#clip0_682_916)">
<path d="M20.0383 0.5H6.16164C3.09002 0.5 0.599976 2.99004 0.599976 6.06167V19.9383C0.599976 23.01 3.09002 25.5 6.16164 25.5H20.0383C23.1099 25.5 25.6 23.01 25.6 19.9383V6.06167C25.6 2.99004 23.1099 0.5 20.0383 0.5Z" fill="url(#paint0_linear_682_916)"/>
<path d="M12.3367 22.3867C11.5909 22.12 11.4309 21.7575 11.125 19.6333C10.7692 17.1642 10.6917 15.6358 10.8975 15.1517C11.1709 14.51 11.9125 14.1458 12.95 14.1417C13.9792 14.1375 14.7275 14.505 15.0025 15.1517C15.2092 15.635 15.1317 17.1642 14.7759 19.6333C14.5342 21.3583 14.4009 21.7942 14.0675 22.0875C13.6092 22.4933 12.9592 22.6058 12.3425 22.3875L12.3367 22.3867ZM9.15086 19.8533C6.57586 18.5867 4.92586 16.4433 4.32586 13.5917C4.17586 12.8558 4.15086 11.1 4.29253 10.425C4.66753 8.6125 5.38419 7.195 6.57586 5.94167C8.29253 4.13167 10.5009 3.175 12.9592 3.175C15.3925 3.175 17.5925 4.11417 19.2675 5.87C20.5425 7.195 21.2592 8.5975 21.6259 10.445C21.7509 11.06 21.7509 12.7367 21.6342 13.4283C21.2509 15.615 20.0342 17.6067 18.2592 18.945C17.6259 19.4233 16.0759 20.2583 15.8259 20.2583C15.7342 20.2583 15.7259 20.1633 15.7675 19.7792C15.8425 19.1625 15.9175 19.0342 16.2675 18.8875C16.8259 18.6542 17.7759 17.9775 18.3592 17.3925C19.3675 16.3925 20.1092 15.0842 20.4509 13.7092C20.6675 12.8508 20.6425 10.9425 20.4009 10.0592C19.6425 7.25083 17.3509 5.0675 14.5425 4.48417C13.7259 4.3175 12.2425 4.3175 11.4175 4.48417C8.57586 5.0675 6.22586 7.35917 5.50919 10.2425C5.31753 11.0258 5.31753 12.9342 5.50919 13.7175C5.98419 15.6258 7.21753 17.3758 8.83419 18.4175C9.15086 18.6258 9.53419 18.8425 9.69253 18.9092C10.0425 19.0592 10.1175 19.1842 10.1842 19.8008C10.2259 20.1758 10.2175 20.2842 10.1259 20.2842C10.0675 20.2842 9.64253 20.1008 9.19253 19.8842L9.15086 19.8533ZM9.18419 16.4633C8.31753 15.7717 7.55086 14.545 7.23419 13.3417C7.04253 12.615 7.04253 11.2333 7.24253 10.5083C7.76753 8.55167 9.20919 7.035 11.2092 6.3225C11.8925 6.08084 13.4092 6.02667 14.2509 6.2125C17.1509 6.85834 19.2092 9.7625 18.8092 12.6433C18.6509 13.8042 18.2509 14.7575 17.5425 15.6433C17.1925 16.0908 16.3425 16.8417 16.1925 16.8417C16.1675 16.8417 16.1425 16.5583 16.1425 16.2133V15.5833L16.5759 15.0667C18.2092 13.11 18.0925 10.3767 16.3092 8.58333C15.6175 7.885 14.8175 7.475 13.7842 7.28583C13.1175 7.1625 12.9759 7.1625 12.2759 7.2775C11.2134 7.45083 10.39 7.8625 9.65919 8.58583C7.86753 10.3608 7.75086 13.1083 9.38419 15.0667L9.81419 15.5833V16.2167C9.81419 16.5667 9.78669 16.85 9.75253 16.85C9.71919 16.85 9.47753 16.6833 9.21919 16.475L9.18419 16.4633ZM12.0759 13.0608C11.3342 12.7158 10.9342 12.065 10.9259 11.2167C10.9259 10.4542 11.3509 9.78917 12.0842 9.4C12.5509 9.155 13.3759 9.155 13.8425 9.40167C14.3509 9.66583 14.7675 10.1783 14.9259 10.7133C15.4092 12.3567 13.6675 13.7967 12.0925 13.0608H12.0759Z" fill="white"/>
<path d="M13.0908 13.3842C14.2386 13.3842 15.1691 12.4537 15.1691 11.3058C15.1691 10.158 14.2386 9.22751 13.0908 9.22751C11.943 9.22751 11.0125 10.158 11.0125 11.3058C11.0125 12.4537 11.943 13.3842 13.0908 13.3842Z" fill="white"/>
<path d="M13.29 14.1892C13.4342 14.2083 13.7209 14.2458 13.9859 14.3308C14.2525 14.4142 14.4942 14.545 14.6825 14.6792C14.8659 14.8125 14.9992 14.9508 15.0825 15.1192C15.1659 15.2875 15.2075 15.4875 15.2325 15.815C15.2492 16.1433 15.2492 16.5983 15.1742 17.4483C15.0992 18.2958 14.9492 19.5383 14.8325 20.3342C14.7159 21.1342 14.6325 21.4842 14.5242 21.7425C14.4159 22.0092 14.2742 22.1842 14.1159 22.3092C13.9575 22.4342 13.7742 22.5092 13.5992 22.5508C13.4242 22.5925 13.2659 22.5925 13.1159 22.5925C12.9659 22.5925 12.8242 22.5925 12.6325 22.5508C12.4409 22.5092 12.1909 22.4342 12.0075 22.2842C11.8159 22.1342 11.6909 21.9175 11.5909 21.6342C11.4909 21.3508 11.4159 21.0092 11.3159 20.3258C11.2159 19.6425 11.0825 18.6258 10.9992 17.8508C10.9159 17.0758 10.8825 16.5425 10.8759 16.1842C10.8675 15.8258 10.8842 15.6483 10.9259 15.4758C10.9675 15.3092 11.0342 15.1508 11.1259 15.0175C11.2175 14.8842 11.3375 14.7675 11.4592 14.6758C11.5784 14.5842 11.7009 14.5175 11.8475 14.4658C11.9925 14.4075 12.1667 14.3575 12.3809 14.3158C12.5975 14.2742 12.8475 14.2325 12.9759 14.2158C13.1042 14.1967 13.1042 14.1967 13.2475 14.2158L13.29 14.1892Z" fill="white"/>
</g>
<defs>
<linearGradient id="paint0_linear_682_916" x1="13.0741" y1="25.8175" x2="12.8625" y2="0.499999" gradientUnits="userSpaceOnUse">
<stop stop-color="#822CBE"/>
<stop offset="1" stop-color="#D772FB"/>
</linearGradient>
<clipPath id="clip0_682_916">
<rect width="25" height="25" fill="white" transform="translate(0.599976 0.5)"/>
</clipPath>
</defs>
</svg>
