<svg width="125" height="182" viewBox="0 0 125 182" fill="none" xmlns="http://www.w3.org/2000/svg">
<path d="M58.4549 20.6845C52.859 26.2073 47.8137 33.3988 44.2084 42.7626C41.9158 48.717 39.8972 54.5638 38.2129 60.2342M58.4549 20.6845C76.3749 2.99846 99.9409 2.4254 99.9409 2.4254C99.9409 2.4254 116.27 19.2709 118.134 43.6622M58.4549 20.6845C58.4549 20.6845 74.7599 32.3965 86.6481 36.9501C98.4068 41.4542 118.134 43.6622 118.134 43.6622M118.134 43.6622C118.744 51.649 117.804 60.4448 114.232 69.7231C110.132 80.3699 105.467 90.3729 100.291 99.0151M34.7765 73.7904C34.7765 73.7904 52.8155 86.1547 65.7839 91.1396C78.7027 96.1055 100.291 99.0151 100.291 99.0151M34.7765 73.7904C35.6751 69.4156 36.8316 64.8842 38.2129 60.2342M34.7765 73.7904C34.2754 76.2302 33.8545 78.6212 33.5196 80.9569M100.291 99.0151C90.2885 115.718 78.3788 127.337 64.9626 128.698L40.9516 119.453C33.0211 110.775 31.1901 97.204 33.5196 80.9569M38.2129 60.2342C38.2129 60.2342 12.4841 58.0328 8.2649 68.9935C4.18355 79.5961 2.16031 107.223 2.16031 107.223L5.91155 108.667L15.8901 82.7507C18.1842 76.7923 33.5196 80.9569 33.5196 80.9569M106.256 87.7851C106.256 87.7851 126.818 103.407 122.597 114.367C118.514 124.969 101.488 146.819 101.488 146.819L97.7364 145.375L107.715 119.458C110.009 113.5 95.8404 106.305 95.8404 106.305M41.034 118.132C41.034 118.132 29.7418 124.635 26.1255 130.75C21.6374 138.339 24.6021 153.352 24.6021 153.352L37.2882 142.777L28.8124 179.707L48.4509 154.805L50.5561 167.982C50.5561 167.982 65.932 152.103 67.6484 145.964C69.3648 139.825 66.0423 127.761 66.0423 127.761M92.472 70.3038C89.2155 78.7617 79.2978 82.8161 70.3202 79.3595C61.3426 75.903 56.7047 66.2444 59.9612 57.7864C63.2177 49.3285 73.1354 45.2741 82.113 48.7307C91.0906 52.1873 95.7285 61.8459 92.472 70.3038Z" stroke="white" stroke-width="3" stroke-linecap="round" stroke-linejoin="round"/>
</svg>
