<svg width="1288" height="327" viewBox="0 0 1288 327" fill="none" xmlns="http://www.w3.org/2000/svg">
<path d="M366.021 204.038C365.552 208.726 362.974 211.265 358.286 211.656C356.099 211.656 354.185 210.953 352.544 209.546C350.982 208.062 350.2 206.226 350.2 204.038V148.726C350.278 146.538 351.099 144.742 352.661 143.335C354.224 141.851 356.099 141.109 358.286 141.109H407.505C414.38 141.343 419.575 142.867 423.091 145.679C426.607 148.413 429.146 151.538 430.708 155.054C432.271 158.57 433.052 162.124 433.052 165.718C433.052 169.468 432.271 173.101 430.708 176.617C429.224 180.132 426.685 183.296 423.091 186.109C419.575 188.843 415.083 190.171 409.614 190.093H380.083C377.896 190.093 376.06 189.312 374.575 187.749C373.013 186.265 372.232 184.429 372.232 182.242C372.232 180.054 372.974 178.218 374.458 176.734C376.021 175.171 377.896 174.39 380.083 174.39H410.318C411.802 174.39 413.013 173.921 413.95 172.984C414.966 171.968 415.708 170.835 416.177 169.585C416.646 168.257 416.88 166.929 416.88 165.601C416.88 164.351 416.646 163.101 416.177 161.851C415.708 160.523 414.966 159.39 413.95 158.453C413.013 157.437 411.802 156.89 410.318 156.812H369.068C367.036 156.89 366.021 157.906 366.021 159.859V204.038ZM446.725 139.234C448.913 139.234 450.788 139.976 452.35 141.46C453.913 142.867 454.733 144.663 454.811 146.851V175.093C454.733 178.296 454.928 181.265 455.397 183.999C455.944 186.656 457.194 189.038 459.147 191.148C461.1 193.257 463.561 194.39 466.53 194.546H504.03C506.218 194.624 508.014 195.445 509.421 197.007C510.905 198.57 511.647 200.445 511.647 202.632C511.569 204.742 510.788 206.538 509.303 208.023C507.897 209.429 506.139 210.171 504.03 210.249H462.546C457.077 209.937 452.546 208.101 448.952 204.742C445.436 201.304 442.897 197.124 441.335 192.203C439.85 187.281 439.069 182.046 438.991 176.499V146.851C439.069 144.742 439.85 142.984 441.335 141.578C442.819 140.093 444.616 139.312 446.725 139.234ZM542.547 192.085C542.547 189.898 543.289 188.062 544.774 186.578C546.336 185.015 548.211 184.234 550.399 184.234H568.328L565.282 175.562C564.032 172.359 562.782 169.351 561.532 166.538C560.36 163.648 558.993 161.031 557.43 158.687C556.024 156.343 554.422 155.093 552.625 154.937C550.75 155.093 549.071 156.343 547.586 158.687C546.102 161.031 544.735 163.648 543.485 166.538C542.313 169.351 541.102 172.359 539.852 175.562L528.719 206.031C527.938 207.671 526.922 209.038 525.672 210.132C524.5 211.148 522.703 211.656 520.282 211.656C518.016 211.656 516.141 210.874 514.657 209.312C513.25 207.749 512.625 205.874 512.782 203.687C512.86 202.671 513.094 201.734 513.485 200.874L526.375 167.593C529.969 158.843 533.563 151.773 537.157 146.382C540.672 141.07 545.828 138.374 552.625 138.296C559.344 138.374 564.461 141.07 567.977 146.382C571.571 151.617 575.164 158.687 578.758 167.593L591.649 200.874C592.039 201.734 592.274 202.671 592.352 203.687C592.508 205.874 591.844 207.749 590.36 209.312C588.953 210.874 587.118 211.656 584.852 211.656C582.274 211.656 580.36 211.148 579.11 210.132C577.938 209.038 576.961 207.671 576.18 206.031L573.953 199.937H550.399C548.211 199.937 546.375 199.156 544.891 197.593C543.328 196.109 542.547 194.273 542.547 192.085ZM634.853 137.945C638.916 137.945 642.9 138.413 646.807 139.351C650.791 140.288 654.58 141.695 658.174 143.57C661.768 145.367 664.932 147.788 667.666 150.835C670.478 153.882 672.002 157.515 672.236 161.734V166.656V204.038C671.768 208.726 669.189 211.265 664.502 211.656C662.314 211.656 660.4 210.953 658.76 209.546C657.197 208.062 656.416 206.226 656.416 204.038V165.367C656.26 162.945 655.322 160.953 653.603 159.39C651.963 157.749 650.088 156.46 647.978 155.523C645.947 154.585 643.799 153.882 641.533 153.413C639.346 152.945 637.119 152.71 634.853 152.71C632.588 152.71 630.322 152.945 628.057 153.413C625.869 153.882 623.721 154.585 621.611 155.523C619.58 156.46 617.705 157.749 615.986 159.39C614.346 160.953 613.447 162.945 613.291 165.367V204.038C612.9 208.726 610.361 211.265 605.674 211.656C603.486 211.656 601.572 210.953 599.932 209.546C598.369 208.062 597.588 206.226 597.588 204.038V166.656V161.734C597.822 157.515 599.307 153.882 602.041 150.835C604.775 147.788 607.939 145.367 611.533 143.57C615.127 141.695 618.877 140.288 622.783 139.351C626.768 138.413 630.791 137.945 634.853 137.945ZM702.199 141.109H707.589H747.433C749.621 141.187 751.418 142.007 752.824 143.57C754.308 145.132 755.05 147.007 755.05 149.195C754.66 153.882 752.121 156.421 747.433 156.812H706.183C703.214 156.968 700.753 158.101 698.8 160.21C696.847 162.32 695.402 164.742 694.464 167.476C693.605 170.132 693.175 172.867 693.175 175.679C693.175 178.492 693.605 181.265 694.464 183.999C695.402 186.656 696.847 189.038 698.8 191.148C700.753 193.257 703.214 194.39 706.183 194.546H747.433C749.621 194.624 751.418 195.445 752.824 197.007C754.308 198.57 755.05 200.445 755.05 202.632C754.972 204.742 754.191 206.538 752.707 208.023C751.3 209.429 749.543 210.171 747.433 210.249H704.425H702.199C696.73 209.937 692.199 207.867 688.605 204.038C685.089 200.132 682.55 195.718 680.988 190.796C679.503 185.874 678.761 180.835 678.761 175.679C678.761 170.523 679.543 165.484 681.105 160.562C682.668 155.64 685.207 151.265 688.722 147.437C692.238 143.531 696.73 141.421 702.199 141.109ZM754.816 175.21C754.816 177.398 754.035 179.234 752.472 180.718C750.988 182.281 749.152 183.062 746.964 183.062H711.574C709.386 183.062 707.511 182.32 705.949 180.835C704.464 179.273 703.722 177.398 703.722 175.21C703.722 173.023 704.464 171.148 705.949 169.585C707.511 168.101 709.386 167.359 711.574 167.359H746.964C749.152 167.359 750.988 168.14 752.472 169.703C754.035 171.187 754.816 173.023 754.816 175.21ZM757.943 148.96C757.943 146.773 758.685 144.937 760.169 143.453C761.732 141.89 763.607 141.109 765.794 141.109H833.997C836.185 141.109 838.06 141.851 839.622 143.335C841.107 144.898 841.849 146.773 841.849 148.96C841.849 151.148 841.068 153.023 839.505 154.585C838.021 156.07 836.185 156.812 833.997 156.812H807.864V204.273C807.396 208.96 804.818 211.499 800.13 211.89C797.943 211.89 796.028 211.187 794.388 209.781C792.825 208.296 792.044 206.46 792.044 204.273V156.812H765.794C763.607 156.812 761.771 156.031 760.286 154.468C758.724 152.984 757.943 151.148 757.943 148.96ZM873.921 192.085C873.921 189.898 874.663 188.062 876.147 186.578C877.71 185.015 879.585 184.234 881.772 184.234H899.702L896.655 175.562C895.405 172.359 894.155 169.351 892.905 166.538C891.733 163.648 890.366 161.031 888.803 158.687C887.397 156.343 885.796 155.093 883.999 154.937C882.124 155.093 880.444 156.343 878.96 158.687C877.475 161.031 876.108 163.648 874.858 166.538C873.686 169.351 872.475 172.359 871.225 175.562L860.093 206.031C859.311 207.671 858.296 209.038 857.046 210.132C855.874 211.148 854.077 211.656 851.655 211.656C849.389 211.656 847.514 210.874 846.03 209.312C844.624 207.749 843.999 205.874 844.155 203.687C844.233 202.671 844.468 201.734 844.858 200.874L857.749 167.593C861.343 158.843 864.936 151.773 868.53 146.382C872.046 141.07 877.202 138.374 883.999 138.296C890.718 138.374 895.835 141.07 899.35 146.382C902.944 151.617 906.538 158.687 910.132 167.593L923.022 200.874C923.413 201.734 923.647 202.671 923.725 203.687C923.882 205.874 923.218 207.749 921.733 209.312C920.327 210.874 918.491 211.656 916.225 211.656C913.647 211.656 911.733 211.148 910.483 210.132C909.311 209.038 908.335 207.671 907.553 206.031L905.327 199.937H881.772C879.585 199.937 877.749 199.156 876.264 197.593C874.702 196.109 873.921 194.273 873.921 192.085ZM944.664 204.273C944.196 208.96 941.617 211.499 936.93 211.89C934.742 211.89 932.828 211.187 931.188 209.781C929.625 208.296 928.844 206.46 928.844 204.273V148.726C928.922 146.538 929.742 144.742 931.305 143.335C932.867 141.851 934.742 141.109 936.93 141.109H942.672H957.086H986.032C986.5 141.109 986.969 141.148 987.438 141.226H988.141C993.61 141.382 998.102 142.632 1001.62 144.976C1005.13 147.32 1007.67 150.015 1009.23 153.062C1010.8 156.031 1011.58 159.038 1011.58 162.085C1011.58 165.21 1010.8 168.296 1009.23 171.343C1007.75 174.312 1005.21 176.968 1001.62 179.312C998.102 181.656 993.61 182.906 988.141 183.062H967.516C968.141 186.968 969.43 189.859 971.383 191.734C973.258 193.609 975.641 194.546 978.532 194.546H1003.84C1006.03 194.624 1007.83 195.445 1009.23 197.007C1010.72 198.57 1011.46 200.445 1011.46 202.632C1011.38 204.742 1010.6 206.538 1009.12 208.023C1007.71 209.429 1005.95 210.171 1003.84 210.249H976.422C970.641 210.328 965.407 208.062 960.719 203.453C956.032 198.843 953.18 193.374 952.164 187.046C950.758 180.015 950.055 176.07 950.055 175.21C950.055 173.023 950.797 171.187 952.282 169.703C953.844 168.14 955.719 167.359 957.907 167.359H988.844C990.328 167.281 991.539 166.968 992.477 166.421C993.492 165.796 994.235 165.132 994.703 164.429C995.172 163.648 995.407 162.867 995.407 162.085C995.407 161.304 995.172 160.562 994.703 159.859C994.235 159.078 993.492 158.413 992.477 157.867C991.539 157.242 990.328 156.89 988.844 156.812H957.086H947.711C945.68 156.89 944.664 157.906 944.664 159.859V204.273ZM1015.17 202.398C1015.17 200.21 1015.92 198.374 1017.4 196.89C1018.96 195.328 1020.84 194.546 1023.03 194.546H1045.53V156.812H1023.03C1020.84 156.812 1019 156.031 1017.52 154.468C1015.96 152.984 1015.17 151.148 1015.17 148.96C1015.17 146.773 1015.92 144.937 1017.4 143.453C1018.96 141.89 1020.84 141.109 1023.03 141.109H1083.73C1085.92 141.109 1087.79 141.851 1089.35 143.335C1090.84 144.898 1091.58 146.773 1091.58 148.96C1091.58 151.148 1090.8 153.023 1089.24 154.585C1087.75 156.07 1085.92 156.812 1083.73 156.812H1061.35V194.546H1083.73C1085.92 194.546 1087.79 195.288 1089.35 196.773C1090.84 198.335 1091.58 200.21 1091.58 202.398C1091.58 204.585 1090.8 206.46 1089.24 208.023C1087.75 209.507 1085.92 210.249 1083.73 210.249H1023.03C1020.84 210.249 1019 209.468 1017.52 207.906C1015.96 206.421 1015.17 204.585 1015.17 202.398ZM1134.43 212.945C1130.37 212.945 1126.35 212.476 1122.36 211.538C1118.46 210.601 1114.71 209.234 1111.11 207.437C1107.52 205.562 1104.35 203.101 1101.62 200.054C1098.89 197.007 1097.4 193.374 1097.17 189.156V184.234V146.851C1097.17 144.663 1097.95 142.867 1099.51 141.46C1101.15 139.976 1103.07 139.234 1105.25 139.234C1109.94 139.624 1112.48 142.163 1112.87 146.851V185.523C1113.03 187.945 1113.93 189.976 1115.57 191.617C1117.28 193.179 1119.16 194.429 1121.19 195.367C1123.3 196.304 1125.45 197.007 1127.64 197.476C1129.9 197.945 1132.17 198.179 1134.43 198.179C1136.7 198.179 1138.93 197.945 1141.11 197.476C1143.38 197.007 1145.53 196.304 1147.56 195.367C1149.67 194.429 1151.54 193.179 1153.18 191.617C1154.9 189.976 1155.84 187.945 1156 185.523V146.851C1156 144.663 1156.78 142.867 1158.34 141.46C1159.98 139.976 1161.89 139.234 1164.08 139.234C1168.77 139.624 1171.35 142.163 1171.82 146.851V184.234V189.156C1171.58 193.374 1170.06 197.007 1167.25 200.054C1164.51 203.101 1161.35 205.562 1157.75 207.437C1154.16 209.234 1150.37 210.601 1146.39 211.538C1142.48 212.476 1138.5 212.945 1134.43 212.945ZM1205.65 137.945C1208.38 137.945 1211.04 138.413 1213.61 139.351C1216.27 140.288 1218.81 141.656 1221.23 143.453C1221.62 143.843 1222.05 144.234 1222.52 144.624C1222.91 144.234 1223.34 143.843 1223.81 143.453C1226.23 141.656 1228.73 140.288 1231.31 139.351C1233.97 138.413 1236.62 137.945 1239.28 137.945C1242.01 137.945 1244.67 138.413 1247.25 139.351C1249.9 140.288 1252.4 141.695 1254.75 143.57C1257.17 145.367 1259.28 147.788 1261.08 150.835C1262.95 153.882 1263.89 157.515 1263.89 161.734V204.038C1263.42 208.726 1260.84 211.265 1256.15 211.656C1253.97 211.656 1252.05 210.953 1250.41 209.546C1248.85 208.062 1248.07 206.226 1248.07 204.038V162.671C1248.07 160.796 1247.72 159.234 1247.01 157.984C1246.31 156.656 1245.53 155.64 1244.67 154.937C1243.81 154.156 1242.91 153.609 1241.97 153.296C1241.04 152.906 1240.1 152.71 1239.16 152.71C1238.22 152.71 1237.29 152.906 1236.35 153.296C1235.49 153.609 1234.63 154.156 1233.77 154.937C1232.91 155.64 1232.13 156.656 1231.43 157.984C1230.72 159.234 1230.33 160.796 1230.26 162.671V204.038C1229.79 208.726 1227.21 211.265 1222.52 211.656C1220.33 211.656 1218.42 210.953 1216.78 209.546C1215.22 208.062 1214.43 206.226 1214.43 204.038V162.671C1214.43 160.796 1214.08 159.234 1213.38 157.984C1212.68 156.656 1211.9 155.64 1211.04 154.937C1210.18 154.156 1209.28 153.609 1208.34 153.296C1207.4 152.906 1206.47 152.71 1205.53 152.71C1204.59 152.71 1203.65 152.906 1202.72 153.296C1201.86 153.609 1201 154.156 1200.14 154.937C1199.28 155.64 1198.5 156.656 1197.79 157.984C1197.09 159.234 1196.7 160.796 1196.62 162.671V204.038C1196.23 208.726 1193.69 211.265 1189.01 211.656C1186.82 211.656 1184.9 210.953 1183.26 209.546C1181.7 208.062 1180.92 206.226 1180.92 204.038V161.734C1181.08 157.515 1182.05 153.882 1183.85 150.835C1185.65 147.788 1187.76 145.367 1190.18 143.57C1192.6 141.695 1195.1 140.288 1197.68 139.351C1200.33 138.413 1202.99 137.945 1205.65 137.945Z" fill="white"/>
<path d="M318.009 210.372C294.366 225.48 261.803 219.053 245.277 196.019C228.751 172.984 234.521 142.064 258.164 126.957C281.807 111.849 314.37 118.276 330.896 141.311C347.422 164.345 341.652 195.265 318.009 210.372Z" fill="white"/>
<path d="M277.038 131.099C278.172 126.722 280.127 122.598 282.809 118.925C278.034 119.233 273.347 120.18 268.886 121.739C266.647 126.82 264.79 132.055 263.332 137.407C257.128 160.619 260.486 156.724 243.493 178.606C241.918 180.617 240.545 182.768 239.392 185.033C240.751 188.462 242.482 191.756 244.556 194.858C248.205 200.192 252.857 204.849 258.267 208.585C264.754 201.29 272.846 190.913 274.529 183.057C277.349 169.837 270.366 156.537 277.038 131.099Z" fill="#90CAF9"/>
<path d="M276.225 216.889C281.84 218.316 287.638 218.842 293.378 218.445C297.732 208.049 297.514 199.919 305.61 187.789C312.689 177.184 328.789 166.067 339.255 159.556C337.909 153.482 335.397 147.668 331.848 142.41C331.331 141.69 330.836 141 330.32 140.279C318.606 148.672 308.312 158.714 299.773 170.077C287.376 186.355 287.094 202.55 276.225 216.889Z" fill="#90CAF9"/>
<path d="M289.708 146.772C299.965 145.862 310.48 136.737 318.031 128.676C313.34 125.411 308.138 122.897 302.635 121.235C291.849 130.795 275.513 148.013 289.708 146.772Z" fill="#90CAF9"/>
<path fill-rule="evenodd" clip-rule="evenodd" d="M239.193 145.239C240.287 146.713 239.986 148.711 238.483 149.763C214.943 166.249 196.8 182.81 185.981 197.123C180.565 204.29 177.105 210.737 175.633 216.205C174.166 221.658 174.754 225.785 176.853 228.802M239.193 145.239L236.302 147.075C188.899 180.273 162.54 214.229 173.902 230.556C187.245 249.712 248.933 235.123 311.948 197.849C374.963 160.575 415.103 114.939 401.783 95.8135C389.742 78.4967 341.164 86.5646 284.889 116.209L281.998 118.046C283.056 119.477 285.102 119.964 286.702 119.121C314.631 104.409 340.481 95.1458 360.673 91.6724C370.783 89.9335 379.28 89.6802 385.829 90.7973C392.377 91.9142 396.572 94.3152 398.831 97.565L398.833 97.567C401.26 101.053 401.597 106.246 398.883 113.375C396.193 120.439 390.72 128.777 382.726 137.859C366.765 155.993 341.276 176.511 309.986 195.019C278.696 213.528 247.853 226.329 223.324 232.137C211.04 235.046 200.538 236.153 192.448 235.457C184.284 234.754 179.291 232.301 176.853 228.803" fill="#D99BFF"/>
<path fill-rule="evenodd" clip-rule="evenodd" d="M238.609 146.251C239.615 147.638 239.408 149.509 238.063 150.6C224.388 161.678 214.2 172.924 208.527 182.774C202.722 192.853 202.211 200.386 205.466 205.016L205.475 205.03C207.575 208.047 211.482 210.259 217.526 211.262C223.566 212.265 231.331 211.975 240.376 210.319C258.442 207.01 280.863 198.392 303.245 185.152C325.627 171.912 343.48 156.702 354.283 142.93C359.692 136.034 363.218 129.643 364.75 124.161C366.283 118.676 365.732 114.483 363.634 111.469L363.629 111.462C361.881 108.937 358.882 106.988 354.403 105.823C349.897 104.651 344.108 104.339 337.244 104.984C323.526 106.273 306.217 111.316 287.869 119.78C286.266 120.519 284.312 119.983 283.308 118.59L286.222 116.787C323.388 99.6422 357.082 95.9936 366.583 109.717C378.006 126.128 350.496 161.189 305.206 187.981C259.915 214.772 213.948 223.193 202.526 206.782C193.678 194.196 207.971 170.514 235.696 148.054L238.609 146.251Z" fill="#D99BFF"/>
<path d="M185.776 242.908C184.77 241.459 184.223 239.785 184.203 238.097C184.183 236.409 184.692 234.783 185.665 233.426C186.638 232.068 188.031 231.039 189.669 230.469C191.307 229.9 193.116 229.814 194.867 230.224C196.618 230.634 198.232 231.521 199.506 232.772C200.78 234.024 201.656 235.584 202.024 237.255C202.392 238.927 202.234 240.634 201.572 242.162C200.909 243.691 199.772 244.97 198.302 245.84C197.328 246.423 196.229 246.809 195.07 246.977C193.912 247.145 192.715 247.091 191.551 246.819C190.386 246.546 189.276 246.06 188.285 245.389C187.294 244.718 186.441 243.875 185.776 242.908Z" fill="#90CAF9"/>
<path d="M357.261 112.503C356.254 111.052 355.707 109.376 355.688 107.687C355.669 105.997 356.18 104.371 357.155 103.013C358.131 101.656 359.527 100.628 361.168 100.06C362.808 99.4923 364.619 99.41 366.371 99.8238C368.123 100.238 369.737 101.129 371.008 102.384C372.28 103.64 373.153 105.204 373.515 106.877C373.877 108.551 373.714 110.259 373.045 111.786C372.376 113.313 371.231 114.589 369.756 115.454C368.781 116.031 367.684 116.412 366.528 116.576C365.371 116.74 364.178 116.684 363.017 116.409C361.856 116.135 360.75 115.649 359.762 114.978C358.774 114.308 357.924 113.467 357.261 112.503Z" fill="#90CAF9"/>
<path d="M91.4613 143.109H96.8519H136.696C138.883 143.187 140.68 144.007 142.086 145.57C143.571 147.132 144.313 149.007 144.313 151.195C143.922 155.882 141.383 158.421 136.696 158.812H95.4456C92.4769 158.968 90.016 160.101 88.0628 162.21C86.1097 164.32 84.6644 166.742 83.7269 169.476C82.8675 172.132 82.4378 174.867 82.4378 177.679C82.4378 180.492 82.8675 183.265 83.7269 185.999C84.6644 188.656 86.1097 191.038 88.0628 193.148C90.016 195.257 92.4769 196.39 95.4456 196.546H136.696C138.883 196.624 140.68 197.445 142.086 199.007C143.571 200.57 144.313 202.445 144.313 204.632C144.235 206.742 143.453 208.538 141.969 210.023C140.563 211.429 138.805 212.171 136.696 212.249H93.6878H91.4613C85.9925 211.937 81.4613 209.867 77.8675 206.038C74.3519 202.132 71.8128 197.718 70.2503 192.796C68.766 187.874 68.0238 182.835 68.0238 177.679C68.0238 172.523 68.805 167.484 70.3675 162.562C71.93 157.64 74.4691 153.265 77.9847 149.437C81.5003 145.531 85.9925 143.421 91.4613 143.109ZM144.078 177.21C144.078 179.398 143.297 181.234 141.735 182.718C140.25 184.281 138.414 185.062 136.227 185.062H100.836C98.6488 185.062 96.7738 184.32 95.2113 182.835C93.7269 181.273 92.9847 179.398 92.9847 177.21C92.9847 175.023 93.7269 173.148 95.2113 171.585C96.7738 170.101 98.6488 169.359 100.836 169.359H136.227C138.414 169.359 140.25 170.14 141.735 171.703C143.297 173.187 144.078 175.023 144.078 177.21ZM181.893 176.038C179.783 172.054 177.127 168.265 173.924 164.671C170.721 161.078 167.635 159.124 164.666 158.812H154.822C152.635 158.812 150.799 158.031 149.314 156.468C147.752 154.984 146.971 153.148 146.971 150.96C146.971 148.773 147.713 146.937 149.197 145.453C150.76 143.89 152.635 143.109 154.822 143.109H164.666V143.226H165.838C171.463 143.538 177.283 146.703 183.299 152.718C186.268 155.765 189.002 159.203 191.502 163.031C194.002 159.203 196.775 155.765 199.822 152.718C205.76 146.703 211.541 143.538 217.166 143.226H218.338V143.109H228.182C230.369 143.109 232.205 143.89 233.689 145.453C235.252 146.937 236.033 148.773 236.033 150.96C236.033 153.148 235.252 154.984 233.689 156.468C232.205 158.031 230.369 158.812 228.182 158.812H218.338C215.369 159.124 212.283 161.078 209.08 164.671C205.877 168.265 203.221 172.054 201.111 176.038C200.643 176.898 200.174 177.718 199.705 178.499C199.861 178.734 200.018 178.968 200.174 179.203C202.283 183.265 204.939 187.093 208.143 190.687C211.346 194.281 214.432 196.195 217.4 196.429H227.244C229.432 196.429 231.268 197.21 232.752 198.773C234.314 200.257 235.096 202.093 235.096 204.281C235.096 206.468 234.314 208.343 232.752 209.906C231.268 211.39 229.432 212.132 227.244 212.132H216.228C210.603 211.82 204.822 208.695 198.885 202.757C196.228 200.023 193.768 197.054 191.502 193.851C189.236 197.054 186.775 200.023 184.119 202.757C178.182 208.695 172.4 211.82 166.775 212.132H155.76C153.572 212.132 151.697 211.39 150.135 209.906C148.65 208.343 147.908 206.468 147.908 204.281C147.908 202.093 148.689 200.257 150.252 198.773C151.736 197.21 153.572 196.429 155.76 196.429H165.603C168.572 196.195 171.658 194.281 174.861 190.687C178.064 187.093 180.721 183.265 182.83 179.203C182.986 178.968 183.143 178.734 183.299 178.499C182.83 177.718 182.361 176.898 181.893 176.038Z" fill="white"/>
</svg>
