<svg width="1023" height="221" viewBox="0 0 1023 221" fill="none" xmlns="http://www.w3.org/2000/svg">
<path d="M636.675 163.825C665.707 152.181 679.193 118.151 666.795 87.817C654.398 57.4826 620.812 42.3308 591.779 53.9746C562.746 65.6184 549.261 99.6486 561.658 129.983C574.056 160.317 607.642 175.469 636.675 163.825Z" fill="white" stroke="#D99BFF" stroke-width="1.04814" stroke-linecap="round" stroke-linejoin="round"/>
<path d="M584.372 73.9498C579.427 72.0957 574.232 71.1593 569.034 71.1851C572.227 67.023 575.988 63.3644 580.207 60.3159C586.505 61.6237 592.722 63.3844 598.812 65.5849C625.148 75.2441 619.325 75.7412 650.905 74.6577C653.815 74.545 656.739 74.7107 659.64 75.1526C662.153 78.6599 664.307 82.4172 666.069 86.3619C669.046 93.2208 670.757 100.549 671.114 107.961C660.088 109.074 645.092 109.619 636.43 105.97C621.863 99.8167 613.157 84.6491 584.372 73.9498Z" fill="#90CAF9"/>
<path d="M668.312 129.95C666.299 136.024 663.299 141.67 659.436 146.654C646.689 143.77 638.915 138.201 622.215 137.592C607.613 137.059 587.05 144.433 574.379 149.699C569.288 144.458 565.155 138.323 562.191 131.608C561.803 130.66 561.432 129.752 561.045 128.804C576.301 123.64 592.302 120.862 608.525 120.562C631.863 119.98 647.785 130.416 668.312 129.95Z" fill="#90CAF9"/>
<path d="M591.979 95.9006C584.877 104.677 569.629 108.265 557.21 109.845C556.877 103.4 557.584 96.9818 559.301 90.8527C575.138 87.3048 601.788 83.7399 591.979 95.9006Z" fill="#90CAF9"/>
<path d="M617.2 49.3389C678.942 28.2076 736.208 25.5081 745.253 46.2388C755.857 70.5719 703.603 116.53 628.259 149.046C552.915 181.561 483.427 188.151 472.838 163.857C463.24 141.878 505.11 102.152 568.818 70.7649" stroke="#D99BFF" stroke-width="1.04814" stroke-linecap="round" stroke-linejoin="round"/>
<path d="M626.283 48.3167C665.402 37.9131 697.457 40.3613 704.376 56.4295C713.468 77.2786 676.918 113.124 622.739 136.508C568.559 159.891 517.197 161.969 508.104 141.12C500.469 123.731 524.782 95.8265 564.487 73.5139" stroke="#D99BFF" stroke-width="1.04814" stroke-linecap="round" stroke-linejoin="round"/>
<path d="M751.382 64.4632C750.574 62.6158 749.26 61.0362 747.607 59.9242C745.955 58.8122 744.036 58.2176 742.095 58.2158C740.154 58.2139 738.278 58.8047 736.703 59.9136C735.128 61.0225 733.925 62.5997 733.247 64.4457C732.569 66.2917 732.446 68.3237 732.893 70.2848C733.34 72.2458 734.337 74.0479 735.759 75.4632C737.18 76.8785 738.963 77.8435 740.88 78.2361C742.797 78.6287 744.763 78.4313 746.53 77.6689C747.707 77.167 748.768 76.4261 749.65 75.4891C750.532 74.5521 751.218 73.4376 751.669 72.2098C752.12 70.9819 752.327 69.6651 752.278 68.3355C752.228 67.0059 751.924 65.6899 751.382 64.4632Z" fill="#90CAF9"/>
<path d="M582.82 167.198C582.011 165.349 580.696 163.768 579.041 162.656C577.386 161.545 575.466 160.951 573.523 160.951C571.581 160.952 569.703 161.546 568.129 162.659C566.554 163.771 565.354 165.352 564.679 167.202C564.004 169.051 563.885 171.085 564.338 173.047C564.79 175.009 565.793 176.81 567.221 178.222C568.648 179.634 570.434 180.593 572.354 180.979C574.274 181.365 576.241 181.159 578.006 180.388C579.178 179.883 580.233 179.14 581.11 178.202C581.987 177.265 582.668 176.151 583.116 174.925C583.563 173.7 583.767 172.386 583.716 171.06C583.666 169.734 583.361 168.421 582.82 167.198Z" fill="#90CAF9"/>
<path d="M780.553 164.352H698.112C691.588 164.352 686.627 164.234 683.229 164L683.463 149.762L683.932 130.602C684.01 129.508 684.342 121.949 684.928 107.926C685.553 93.8633 686.022 84.5273 686.334 79.918C692.233 79.2539 699.538 78.9219 708.248 78.9219C716.998 78.9219 724.225 78.9609 729.928 79.0391L728.58 108.336C728.502 112.203 728.014 123.727 727.116 142.906L772.291 141.852C776.823 141.852 780.514 142.066 783.366 142.496C783.366 144.996 783.053 148.258 782.428 152.281L780.553 164.352ZM844.259 132.359C840.001 118.648 837.208 109.254 835.88 104.176C833.692 111.051 831.524 117.262 829.376 122.809C827.227 128.355 825.997 131.539 825.684 132.359H844.259ZM816.895 153.863L812.501 164.879C810.509 165.152 808.536 165.289 806.583 165.289C804.63 165.289 794.63 164.859 776.583 164C781.075 154.586 793.575 126.656 814.083 80.2109C816.544 80.1328 822.032 79.918 830.548 79.5664C839.102 79.1758 846.544 78.9805 852.872 78.9805C859.2 78.9805 863.555 79.3711 865.938 80.1523C866.173 80.9336 876.427 104.879 896.7 151.988L901.622 163.473C876.778 164.996 864.102 165.758 863.595 165.758C863.126 165.758 860.606 165.641 856.036 165.406C854.278 162.242 852.774 158.551 851.524 154.332C849.024 154.02 837.481 153.863 816.895 153.863ZM948.452 127.262L946.988 147.535C955.816 147.535 962.925 146.949 968.316 145.777C973.745 144.566 977.554 143.258 979.741 141.852C981.929 140.445 983.023 138.844 983.023 137.047C983.023 133.18 980.21 130.582 974.585 129.254C968.96 127.926 960.249 127.262 948.452 127.262ZM956.831 113.727C972.144 113.727 979.8 110.562 979.8 104.234C979.683 98.7266 971.753 95.9727 956.011 95.9727C954.605 95.9727 952.866 96.1094 950.796 96.3828C950.327 100.445 949.898 106.227 949.507 113.727H956.831ZM1000.78 115.953C1015.15 118.258 1022.34 125.27 1022.34 136.988C1022.34 151.48 1009.1 160.445 982.613 163.883C974.605 164.898 966.265 165.406 957.593 165.406C948.921 165.445 938.882 165.309 927.476 164.996C916.07 164.723 908.687 164.469 905.327 164.234C903.999 163.883 903.335 163.121 903.335 161.949V161.48C904.077 146.715 905.269 127.594 906.909 104.117L908.784 78.9805C919.527 78.5508 938.257 78.3359 964.976 78.3359C981.773 78.3359 994.917 80.1133 1004.41 83.668C1013.94 87.1836 1018.71 92.3984 1018.71 99.3125C1018.71 102.633 1016.93 105.953 1013.37 109.273C1009.82 112.555 1005.62 114.781 1000.78 115.953Z" fill="white"/>
<path d="M105.406 162.711C100.445 164.117 95.0938 165.113 89.3516 165.699C83.6094 166.324 77.0078 166.637 69.5469 166.637C62.0859 166.637 53.9219 165.953 45.0547 164.586C36.1875 163.258 27.8477 161.305 20.0352 158.727C20.1914 158.062 22.0859 150.738 25.7188 136.754C25.7188 136.48 25.875 136.344 26.1875 136.344C33.2188 138.102 38.6094 139.391 42.3594 140.211C52.3203 142.398 62.9648 143.492 74.293 143.492C80.5039 143.492 83.6094 142.418 83.6094 140.27C83.6094 139.293 83.2969 138.609 82.6719 138.219C82.0469 137.789 80.9531 137.457 79.3906 137.223C77.8281 136.988 75.3086 136.617 71.832 136.109C68.3555 135.562 65.6992 135.133 63.8633 134.82C62.0273 134.508 59.4492 134.059 56.1289 133.473C52.8086 132.887 50.2695 132.359 48.5117 131.891C46.793 131.422 44.5664 130.816 41.832 130.074C39.1367 129.293 37.0469 128.512 35.5625 127.73C34.0781 126.949 32.3594 126.012 30.4062 124.918C28.4531 123.824 26.9688 122.652 25.9531 121.402C24.8594 120.152 23.8047 118.746 22.7891 117.184C20.9141 114.332 19.9766 110.836 19.9766 106.695C19.9766 95.9141 24.9375 88.3164 34.8594 83.9023C44.7812 79.4492 59.5078 77.2227 79.0391 77.2227C87.0859 77.2227 95.2891 78.0625 103.648 79.7422C112.047 81.4219 118.199 83.2188 122.105 85.1328C119.918 93.4141 117.984 100.094 116.305 105.172C111.656 103.883 104.938 102.613 96.1484 101.363C87.3594 100.074 79.5469 99.4297 72.7109 99.4297C65.9141 99.4297 62.5156 100.523 62.5156 102.711C62.5156 103.961 63.375 104.898 65.0938 105.523C66.8516 106.109 71.0117 106.949 77.5742 108.043C84.1758 109.098 88.6094 109.82 90.875 110.211C107.75 113.102 118.57 117.359 123.336 122.984C126.852 127.164 128.609 131.656 128.609 136.461C128.648 141.266 127.711 145.367 125.797 148.766C123.922 152.164 121.305 154.977 117.945 157.203C114.586 159.43 110.406 161.266 105.406 162.711ZM198.936 138.16L177.491 137.809L176.26 163.473C158.877 164.176 147.94 164.527 143.448 164.527C138.955 164.527 136.416 164.449 135.83 164.293C135.948 162.887 136.045 160.797 136.123 158.023L136.299 148.18C136.495 142.711 137.041 119.898 137.94 79.7422C158.291 78.5703 179.112 77.9844 200.401 77.9844C215.205 77.9844 226.592 80.0547 234.561 84.1953C244.873 89.5859 250.01 97.8477 249.971 108.98C249.971 128.434 232.959 138.16 198.936 138.16ZM208.135 108.57C208.135 104.938 206.866 102.75 204.327 102.008C201.827 101.266 198.37 100.895 193.955 100.895C189.58 100.895 184.6 101.188 179.014 101.773C178.467 107.906 178.194 113.238 178.194 117.77C178.819 118.004 182.92 118.121 190.498 118.121C202.256 118.121 208.135 114.938 208.135 108.57ZM306.294 132.359C302.036 118.648 299.243 109.254 297.915 104.176C295.727 111.051 293.559 117.262 291.411 122.809C289.262 128.355 288.032 131.539 287.72 132.359H306.294ZM278.93 153.863L274.536 164.879C272.544 165.152 270.571 165.289 268.618 165.289C266.665 165.289 256.665 164.859 238.618 164C243.11 154.586 255.61 126.656 276.118 80.2109C278.579 80.1328 284.067 79.918 292.583 79.5664C301.137 79.1758 308.579 78.9805 314.907 78.9805C321.235 78.9805 325.591 79.3711 327.973 80.1523C328.208 80.9336 338.462 104.879 358.735 151.988L363.657 163.473C338.813 164.996 326.137 165.758 325.63 165.758C325.161 165.758 322.641 165.641 318.071 165.406C316.313 162.242 314.809 158.551 313.559 154.332C311.059 154.02 299.516 153.863 278.93 153.863ZM360.155 122.75C360.155 109 365.585 98.3555 376.445 90.8164C389.452 81.7539 407.655 77.2227 431.054 77.2227C435.116 77.2227 438.886 77.418 442.362 77.8086V105.582C437.245 104.879 431.698 104.527 425.722 104.527C419.784 104.527 414.882 105.953 411.015 108.805C407.187 111.656 405.273 116.188 405.273 122.398C405.273 135.523 412.284 142.086 426.308 142.086C429.862 142.086 435.214 141.402 442.362 140.035V165.758C437.05 166.344 431.62 166.637 426.073 166.637C397.362 166.637 377.734 159.762 367.187 146.012C362.499 139.918 360.155 132.164 360.155 122.75ZM554.584 164.527H517.259L450.287 164.059L451.283 143.434C453.275 102.066 454.271 80.8555 454.271 79.8008C458.959 79.6055 462.025 79.5078 463.47 79.5078H522.767C535.931 79.5078 546.576 79.4297 554.701 79.2734L552.298 101.363C542.845 102.223 524.017 102.652 495.814 102.652C495.697 103.59 495.56 105.172 495.404 107.398C495.287 109.625 495.189 111.305 495.111 112.438C506.361 112.242 514.212 112.145 518.666 112.145L531.556 112.496C531.556 114.215 531.283 117.184 530.736 121.402C530.228 125.621 529.662 128.883 529.037 131.188C528.412 131.344 523.548 131.422 514.447 131.422H494.349L493.705 142.848L555.228 143.551C555.228 150.934 555.111 156.207 554.877 159.371C554.681 162.496 554.584 164.215 554.584 164.527Z" fill="white"/>
</svg>
