<svg width="386" height="185" viewBox="0 0 386 185" fill="none" xmlns="http://www.w3.org/2000/svg">
<path d="M204.812 165.119C243.895 161.042 272.176 125.111 267.978 84.8637C263.78 44.6167 228.693 15.2947 189.61 19.3713C150.526 23.4479 122.246 59.3794 126.444 99.6264C130.642 139.874 165.728 169.195 204.812 165.119Z" fill="white" stroke="#D99BFF" stroke-width="1.04814" stroke-linecap="round" stroke-linejoin="round"/>
<path d="M173.622 40.6338C168.323 36.7649 162.398 33.903 156.129 32.1843C161.447 28.3091 167.27 25.2238 173.43 23.0184C180.552 26.6932 187.416 30.8793 193.971 35.5456C222.271 55.896 215.082 54.5275 253.496 63.8665C257.041 64.712 260.504 65.8932 263.842 67.3949C265.626 72.4115 266.892 77.605 267.618 82.8888C268.776 92.0476 268.244 101.338 266.051 110.273C252.379 107.886 234.126 103.488 224.987 96.2326C209.621 84.0129 204.502 63.0452 173.622 40.6338Z" fill="#90CAF9"/>
<path d="M254.898 135.48C250.325 142.026 244.714 147.731 238.298 152.358C223.967 144.638 216.575 135.4 196.679 129.054C179.283 123.508 151.911 125.356 134.788 127.354C130.51 119.409 127.703 110.722 126.51 101.738C126.379 100.481 126.253 99.2757 126.122 98.0183C146.323 97.0113 166.575 99.0929 186.218 104.195C214.53 111.357 230.012 129.126 254.898 135.48Z" fill="#90CAF9"/>
<path d="M175.017 69.2987C163.359 77.3464 143.726 76.4815 128.212 74.1807C130.091 66.4037 133.213 59.0092 137.45 52.2983C157.777 53.4086 191.133 58.138 175.017 69.2987Z" fill="#90CAF9"/>
<path d="M221.864 22.4148C303.695 18.0631 373.616 34.1251 377.174 61.8226C381.336 94.3292 302.145 131.399 199.906 144.711C97.6661 158.023 11.6503 142.475 7.49371 110.021C3.71043 80.6521 68.1894 47.4998 156.018 31.6131" stroke="#D99BFF" stroke-width="1.04814" stroke-linecap="round" stroke-linejoin="round"/>
<path d="M233.164 24.2548C283.955 25.0474 321.693 38.7466 324.34 60.1838C327.914 88.0384 271.215 118.367 197.694 127.942C124.173 137.517 61.5821 122.703 58.0081 94.8484C54.9659 71.5987 94.1178 46.596 149.829 33.4236" stroke="#D99BFF" stroke-width="1.04814" stroke-linecap="round" stroke-linejoin="round"/>
<path d="M378.107 85.5571C377.788 83.0882 376.765 80.7677 375.168 78.889C373.571 77.0103 371.471 75.6577 369.134 75.0022C366.797 74.3468 364.328 74.4179 362.039 75.2066C359.75 75.9954 357.744 77.4663 356.274 79.4334C354.804 81.4005 353.937 83.7755 353.781 86.2581C353.626 88.7407 354.189 91.2194 355.401 93.381C356.612 95.5425 358.417 97.2899 360.587 98.402C362.757 99.5141 365.195 99.9411 367.592 99.629C369.187 99.4284 370.727 98.9041 372.12 98.0866C373.514 97.2692 374.735 96.1748 375.713 94.8664C376.691 93.558 377.406 92.0616 377.817 90.4638C378.227 88.866 378.326 87.1984 378.107 85.5571Z" fill="#90CAF9"/>
<path d="M71.957 91.0108C71.6372 88.5398 70.6126 86.2176 69.0129 84.3382C67.4133 82.4589 65.3105 81.1069 62.971 80.4536C60.6314 79.8003 58.1603 79.8752 55.8706 80.6684C53.5809 81.4617 51.5755 82.9378 50.1084 84.9099C48.6414 86.882 47.7786 89.2613 47.6294 91.7466C47.4803 94.2318 48.0514 96.7112 49.2704 98.8708C50.4895 101.03 52.3016 102.773 54.4774 103.878C56.6532 104.983 59.0948 105.4 61.4929 105.077C63.0833 104.87 64.6163 104.342 66.004 103.522C67.3916 102.702 68.6066 101.607 69.579 100.3C70.5513 98.9929 71.262 97.4993 71.6701 95.9052C72.0782 94.311 72.1757 92.6478 71.957 91.0108Z" fill="#90CAF9"/>
</svg>
