<svg width="259" height="51" viewBox="0 0 259 51" fill="none" xmlns="http://www.w3.org/2000/svg">
<path d="M225.278 30.4771C234.19 27.3329 242.816 26.5361 244.63 29.0636C246.757 32.0304 239.814 38.2124 229.083 42.8931C218.351 47.5738 207.955 48.9563 205.831 45.9943C203.906 43.3147 209.408 37.9976 218.399 33.5514" stroke="#D99BFF" stroke-linecap="round" stroke-linejoin="round"/>
<path d="M226.633 30.2761C232.343 28.6583 237.256 28.7088 238.648 30.6686C240.471 33.2106 235.694 37.9985 227.977 41.3647C220.26 44.7308 212.516 45.4024 210.692 42.8605C209.164 40.7407 212.255 37.0466 217.8 33.9306" stroke="#D99BFF" stroke-linecap="round" stroke-linejoin="round"/>
<path d="M230.673 44.6788C234.827 42.9862 236.146 38.6105 233.619 34.9054C231.092 31.2003 225.676 29.5688 221.522 31.2614C217.368 32.954 216.049 37.3298 218.576 41.0349C221.103 44.74 226.519 46.3714 230.673 44.6788Z" fill="white" stroke="#D99BFF" stroke-linecap="round" stroke-linejoin="round"/>
<path d="M220.826 33.826C220.037 33.6331 219.229 33.5572 218.442 33.602C218.837 33.0545 219.329 32.5656 219.904 32.1495C220.887 32.2631 221.867 32.4342 222.838 32.6614C227.037 33.662 226.165 33.771 230.93 33.3824C231.369 33.345 231.816 33.3423 232.266 33.3745C232.721 33.7943 233.128 34.2483 233.48 34.7289C234.077 35.5653 234.493 36.4706 234.705 37.3973C233.057 37.6251 230.795 37.8135 229.404 37.4251C227.063 36.77 225.42 34.9375 220.826 33.826Z" fill="#5C1FA8"/>
<path d="M239.964 30.5645C239.802 30.3393 239.569 30.1517 239.295 30.0255C239.02 29.8993 238.717 29.84 238.422 29.8553C238.128 29.8706 237.856 29.9598 237.641 30.1114C237.426 30.2631 237.277 30.4705 237.214 30.7075C237.15 30.9444 237.175 31.2002 237.284 31.4426C237.394 31.685 237.584 31.903 237.829 32.0691C238.075 32.2352 238.366 32.342 238.665 32.3759C238.964 32.4098 239.258 32.3693 239.51 32.2595C239.678 32.1872 239.823 32.0858 239.936 31.9612C240.05 31.8366 240.131 31.6913 240.173 31.5338C240.215 31.3762 240.218 31.2094 240.182 31.043C240.146 30.8767 240.072 30.714 239.964 30.5645Z" fill="#5C1FA8"/>
<path d="M222.446 36.5187C221.556 37.6762 219.321 38.2482 217.471 38.5457C217.283 37.74 217.253 36.9295 217.383 36.1471C219.709 35.5754 223.674 34.9151 222.446 36.5187Z" fill="#5C1FA8" fill-opacity="0.79"/>
<path d="M234.747 40.1759C234.572 40.9538 234.237 41.6859 233.758 42.3419C231.763 42.0821 230.466 41.446 227.92 41.5032C225.695 41.5533 222.734 42.6426 220.925 43.4044C220.041 42.7879 219.283 42.0516 218.691 41.233C218.612 41.1173 218.536 41.0064 218.457 40.8906C220.66 40.1209 223.027 39.6445 225.481 39.477C229.008 39.2173 231.645 40.3986 234.747 40.1759Z" fill="#5C1FA8"/>
<path d="M208.936 46.8732C208.814 46.7036 208.638 46.5623 208.431 46.4673C208.225 46.3723 207.996 46.3279 207.774 46.3396C207.553 46.3514 207.348 46.4187 207.186 46.5332C207.024 46.6477 206.913 46.8042 206.865 46.9828C206.818 47.1614 206.837 47.3541 206.92 47.5365C207.003 47.719 207.147 47.8829 207.332 48.0076C207.518 48.1323 207.737 48.2121 207.962 48.2369C208.188 48.2618 208.409 48.2305 208.598 48.1471C208.724 48.0924 208.832 48.0159 208.917 47.9221C209.002 47.8283 209.062 47.7191 209.093 47.6008C209.125 47.4824 209.127 47.3572 209.1 47.2323C209.073 47.1074 209.017 46.9854 208.936 46.8732Z" fill="#6333A2" fill-opacity="0.74"/>
<path d="M61.3125 38V46H60.375L56.0156 39.7187H55.9375V46H54.9688V38H55.9062L60.2813 44.2969H60.3594V38H61.3125ZM78.911 42C78.911 42.8437 78.7586 43.5729 78.4539 44.1875C78.1493 44.8021 77.7313 45.276 77.2 45.6094C76.6688 45.9427 76.062 46.1094 75.3797 46.1094C74.6974 46.1094 74.0907 45.9427 73.5594 45.6094C73.0282 45.276 72.6102 44.8021 72.3055 44.1875C72.0008 43.5729 71.8485 42.8437 71.8485 42C71.8485 41.1562 72.0008 40.4271 72.3055 39.8125C72.6102 39.1979 73.0282 38.724 73.5594 38.3906C74.0907 38.0573 74.6974 37.8906 75.3797 37.8906C76.062 37.8906 76.6688 38.0573 77.2 38.3906C77.7313 38.724 78.1493 39.1979 78.4539 39.8125C78.7586 40.4271 78.911 41.1562 78.911 42ZM77.9735 42C77.9735 41.3073 77.8576 40.7227 77.6258 40.2461C77.3967 39.7695 77.0855 39.4089 76.6922 39.1641C76.3016 38.9193 75.8641 38.7969 75.3797 38.7969C74.8954 38.7969 74.4565 38.9193 74.0633 39.1641C73.6727 39.4089 73.3615 39.7695 73.1297 40.2461C72.9006 40.7227 72.786 41.3073 72.786 42C72.786 42.6927 72.9006 43.2773 73.1297 43.7539C73.3615 44.2305 73.6727 44.5911 74.0633 44.8359C74.4565 45.0807 74.8954 45.2031 75.3797 45.2031C75.8641 45.2031 76.3016 45.0807 76.6922 44.8359C77.0855 44.5911 77.3967 44.2305 77.6258 43.7539C77.8576 43.2773 77.9735 42.6927 77.9735 42ZM95.7936 38V46H94.8561L90.4968 39.7187H90.4186V46H89.4499V38H90.3874L94.7624 44.2969H94.8405V38H95.7936ZM109.955 41.5703V42.4297H106.455V41.5703H109.955ZM120.612 46V38H123.315C123.942 38 124.455 38.1133 124.854 38.3398C125.255 38.5638 125.552 38.8672 125.744 39.25C125.937 39.6328 126.034 40.0599 126.034 40.5312C126.034 41.0026 125.937 41.431 125.744 41.8164C125.554 42.2018 125.26 42.5091 124.862 42.7383C124.463 42.9648 123.953 43.0781 123.33 43.0781H121.393V42.2188H123.299C123.729 42.2188 124.074 42.1445 124.334 41.9961C124.595 41.8477 124.784 41.6471 124.901 41.3945C125.021 41.1393 125.08 40.8516 125.08 40.5312C125.08 40.2109 125.021 39.9245 124.901 39.6719C124.784 39.4193 124.593 39.2214 124.33 39.0781C124.067 38.9323 123.718 38.8594 123.284 38.8594H121.58V46H120.612ZM136.504 46V38H139.207C139.832 38 140.345 38.1068 140.746 38.3203C141.147 38.5312 141.444 38.8216 141.637 39.1914C141.83 39.5612 141.926 39.9818 141.926 40.4531C141.926 40.9245 141.83 41.3424 141.637 41.707C141.444 42.0716 141.149 42.3581 140.75 42.5664C140.352 42.7721 139.843 42.875 139.223 42.875H137.035V42H139.192C139.619 42 139.962 41.9375 140.223 41.8125C140.486 41.6875 140.676 41.5104 140.793 41.2812C140.913 41.0495 140.973 40.7734 140.973 40.4531C140.973 40.1328 140.913 39.8529 140.793 39.6133C140.673 39.3737 140.482 39.1888 140.219 39.0586C139.956 38.9258 139.608 38.8594 139.176 38.8594H137.473V46H136.504ZM140.27 42.4062L142.238 46H141.113L139.176 42.4062H140.27ZM159.2 42C159.2 42.8437 159.048 43.5729 158.743 44.1875C158.439 44.8021 158.021 45.276 157.489 45.6094C156.958 45.9427 156.351 46.1094 155.669 46.1094C154.987 46.1094 154.38 45.9427 153.849 45.6094C153.317 45.276 152.899 44.8021 152.595 44.1875C152.29 43.5729 152.138 42.8437 152.138 42C152.138 41.1562 152.29 40.4271 152.595 39.8125C152.899 39.1979 153.317 38.724 153.849 38.3906C154.38 38.0573 154.987 37.8906 155.669 37.8906C156.351 37.8906 156.958 38.0573 157.489 38.3906C158.021 38.724 158.439 39.1979 158.743 39.8125C159.048 40.4271 159.2 41.1562 159.2 42ZM158.263 42C158.263 41.3073 158.147 40.7227 157.915 40.2461C157.686 39.7695 157.375 39.4089 156.981 39.1641C156.591 38.9193 156.153 38.7969 155.669 38.7969C155.185 38.7969 154.746 38.9193 154.353 39.1641C153.962 39.4089 153.651 39.7695 153.419 40.2461C153.19 40.7227 153.075 41.3073 153.075 42C153.075 42.6927 153.19 43.2773 153.419 43.7539C153.651 44.2305 153.962 44.5911 154.353 44.8359C154.746 45.0807 155.185 45.2031 155.669 45.2031C156.153 45.2031 156.591 45.0807 156.981 44.8359C157.375 44.5911 157.686 44.2305 157.915 43.7539C158.147 43.2773 158.263 42.6927 158.263 42ZM169.739 46V38H174.536V38.8594H170.708V41.5625H174.177V42.4219H170.708V46H169.739ZM186.074 38V46H185.105V38H186.074ZM196.489 38.8594V38H202.489V38.8594H199.973V46H199.004V38.8594H196.489Z" fill="white"/>
<path d="M11.6092 9.92866V7.39273H29.3146V9.92866H21.8912V31H19.0325V9.92866H11.6092ZM33.7266 31V7.39273H36.5853V17.9053H49.1727V7.39273H52.0314V31H49.1727V20.4413H36.5853V31H33.7266ZM57.7546 31V7.39273H72.0019V9.92866H60.6133V17.9053H71.2642V20.4413H60.6133V28.4641H72.1864V31H57.7546ZM99.1941 13.2945C99.0558 12.1265 98.4948 11.2197 97.5112 10.5742C96.5275 9.92866 95.321 9.60591 93.8917 9.60591C92.8466 9.60591 91.9321 9.77497 91.1483 10.1131C90.3721 10.4512 89.765 10.9161 89.327 11.5079C88.8967 12.0996 88.6815 12.772 88.6815 13.5251C88.6815 14.1552 88.8313 14.697 89.131 15.1504C89.4384 15.5961 89.8303 15.9688 90.3068 16.2685C90.7832 16.5605 91.2828 16.8026 91.8053 16.9947C92.3279 17.1791 92.8082 17.329 93.2462 17.4443L95.6438 18.0898C96.2586 18.2512 96.9425 18.474 97.6956 18.7583C98.4564 19.0427 99.1826 19.4307 99.8742 19.9226C100.574 20.4067 101.15 21.0292 101.603 21.7899C102.057 22.5507 102.283 23.4844 102.283 24.591C102.283 25.8666 101.949 27.0193 101.28 28.0491C100.62 29.0788 99.6513 29.8973 98.3757 30.5043C97.1077 31.1114 95.5669 31.415 93.7534 31.415C92.0627 31.415 90.5988 31.1422 89.3616 30.5966C88.132 30.0509 87.1638 29.2902 86.4568 28.3142C85.7575 27.3383 85.3617 26.2048 85.2695 24.9138H88.2204C88.2973 25.8052 88.597 26.5429 89.1195 27.1269C89.6498 27.7033 90.3183 28.1336 91.1252 28.418C91.9398 28.6946 92.8158 28.8329 93.7534 28.8329C94.8446 28.8329 95.8244 28.6562 96.6928 28.3027C97.5611 27.9415 98.2489 27.442 98.7561 26.8042C99.2633 26.1587 99.5169 25.4056 99.5169 24.5449C99.5169 23.7611 99.2978 23.1232 98.8598 22.6314C98.4218 22.1396 97.8454 21.74 97.1308 21.4326C96.4161 21.1252 95.6438 20.8562 94.8139 20.6257L91.9091 19.7958C90.0647 19.2655 88.6046 18.5086 87.5288 17.525C86.4529 16.5413 85.915 15.2541 85.915 13.6634C85.915 12.3416 86.2724 11.1889 86.987 10.2053C87.7094 9.21399 88.6777 8.44553 89.8918 7.89991C91.1137 7.34662 92.4777 7.06997 93.9839 7.06997C95.5055 7.06997 96.858 7.34278 98.0414 7.88839C99.2248 8.42631 100.162 9.16404 100.854 10.1016C101.553 11.0391 101.922 12.1034 101.961 13.2945H99.1941ZM106.983 31V7.39273H114.96C116.812 7.39273 118.326 7.72701 119.502 8.39557C120.685 9.05646 121.561 9.95172 122.13 11.0814C122.699 12.211 122.983 13.4713 122.983 14.8622C122.983 16.2531 122.699 17.5173 122.13 18.6546C121.569 19.7919 120.701 20.6987 119.525 21.375C118.349 22.0435 116.843 22.3778 115.006 22.3778H109.289V19.8419H114.914C116.182 19.8419 117.2 19.6229 117.969 19.1848C118.737 18.7468 119.294 18.1551 119.64 17.4097C119.994 16.6566 120.17 15.8074 120.17 14.8622C120.17 13.917 119.994 13.0717 119.64 12.3263C119.294 11.5809 118.733 10.9968 117.957 10.5742C117.181 10.1438 116.151 9.92866 114.868 9.92866H109.842V31H106.983ZM126.147 31H123.15L131.818 7.39273H134.769L143.438 31H140.441L133.386 11.1275H133.202L126.147 31ZM127.254 21.7784H139.334V24.3143H127.254V21.7784ZM165.002 14.77H162.143C161.974 13.9477 161.678 13.2254 161.255 12.6029C160.84 11.9805 160.333 11.4579 159.734 11.0353C159.142 10.6049 158.485 10.2822 157.763 10.067C157.04 9.85182 156.287 9.74423 155.503 9.74423C154.074 9.74423 152.779 10.1054 151.619 10.8278C150.466 11.5501 149.548 12.6145 148.864 14.0207C148.188 15.427 147.85 17.1522 147.85 19.1964C147.85 21.2405 148.188 22.9657 148.864 24.372C149.548 25.7783 150.466 26.8426 151.619 27.565C152.779 28.2873 154.074 28.6485 155.503 28.6485C156.287 28.6485 157.04 28.5409 157.763 28.3257C158.485 28.1106 159.142 27.7917 159.734 27.369C160.333 26.9387 160.84 26.4123 161.255 25.7898C161.678 25.1597 161.974 24.4373 162.143 23.6227H165.002C164.787 24.8292 164.395 25.9089 163.826 26.8618C163.257 27.8147 162.55 28.6254 161.705 29.294C160.86 29.9549 159.911 30.4582 158.858 30.804C157.813 31.1499 156.695 31.3228 155.503 31.3228C153.49 31.3228 151.7 30.8309 150.132 29.8473C148.564 28.8637 147.331 27.4651 146.432 25.6515C145.533 23.8379 145.083 21.6862 145.083 19.1964C145.083 16.7065 145.533 14.5548 146.432 12.7413C147.331 10.9277 148.564 9.52906 150.132 8.54543C151.7 7.56179 153.49 7.06997 155.503 7.06997C156.695 7.06997 157.813 7.24288 158.858 7.58869C159.911 7.9345 160.86 8.44168 161.705 9.11025C162.55 9.77113 163.257 10.578 163.826 11.5309C164.395 12.4761 164.787 13.5558 165.002 14.77ZM169.621 31V7.39273H183.868V9.92866H172.48V17.9053H183.131V20.4413H172.48V28.4641H184.053V31H169.621ZM189.021 31V7.39273H191.88V28.4641H202.853V31H189.021ZM209.738 31H206.741L215.409 7.39273H218.36L227.028 31H224.031L216.977 11.1275H216.792L209.738 31ZM210.845 21.7784H222.925V24.3143H210.845V21.7784ZM230.706 31V7.39273H238.959C240.603 7.39273 241.96 7.67706 243.028 8.24573C244.096 8.8067 244.891 9.56364 245.414 10.5165C245.937 11.4618 246.198 12.5107 246.198 13.6634C246.198 14.6778 246.017 15.5154 245.656 16.1763C245.303 16.8372 244.834 17.3597 244.25 17.744C243.673 18.1282 243.047 18.4125 242.371 18.597V18.8275C243.093 18.8736 243.819 19.1272 244.549 19.5883C245.279 20.0494 245.89 20.7102 246.382 21.5709C246.874 22.4316 247.12 23.4844 247.12 24.7293C247.12 25.9128 246.851 26.9771 246.313 27.9223C245.775 28.8675 244.926 29.6168 243.766 30.1701C242.605 30.7234 241.095 31 239.235 31H230.706ZM233.564 28.4641H239.235C241.103 28.4641 242.428 28.1029 243.212 27.3805C244.004 26.6505 244.4 25.7667 244.4 24.7293C244.4 23.9301 244.196 23.1924 243.789 22.5161C243.381 21.8322 242.801 21.2866 242.048 20.8793C241.295 20.4643 240.404 20.2568 239.374 20.2568H233.564V28.4641ZM233.564 17.767H238.867C239.727 17.767 240.503 17.598 241.195 17.2598C241.894 16.9217 242.448 16.4453 242.855 15.8305C243.27 15.2157 243.477 14.4934 243.477 13.6634C243.477 12.626 243.116 11.7461 242.394 11.0237C241.672 10.2937 240.527 9.92866 238.959 9.92866H233.564V17.767Z" fill="white"/>
</svg>
