<svg width="1130" height="265" viewBox="0 0 1130 265" fill="none" xmlns="http://www.w3.org/2000/svg">
<path d="M903.685 146.35C951.724 128.222 998.225 123.627 1008 138.2C1019.47 155.306 982.042 190.95 924.193 217.937C866.344 244.925 810.3 252.896 798.851 235.818C788.476 220.368 818.133 189.711 866.601 164.075" stroke="#D99BFF" stroke-width="4.99361" stroke-linecap="round" stroke-linejoin="round"/>
<path d="M910.992 145.189C941.772 135.862 968.256 136.153 975.76 147.453C985.591 162.109 959.837 189.715 918.238 209.123C876.64 228.532 834.893 232.404 825.062 217.748C816.821 205.526 833.486 184.227 863.376 166.261" stroke="#D99BFF" stroke-width="4.99361" stroke-linecap="round" stroke-linejoin="round"/>
<path d="M932.772 228.237C955.165 218.478 962.274 193.249 948.651 171.887C935.028 150.524 905.831 141.117 883.438 150.876C861.045 160.636 853.935 185.865 867.559 207.227C881.182 228.59 910.379 237.997 932.772 228.237Z" fill="white" stroke="#D99BFF" stroke-width="4.99361" stroke-linecap="round" stroke-linejoin="round"/>
<path d="M879.681 165.663C875.426 164.55 871.071 164.113 866.825 164.371C868.956 161.214 871.61 158.395 874.708 155.996C880.007 156.651 885.291 157.638 890.522 158.948C913.162 164.717 908.459 165.345 934.148 163.105C936.514 162.889 938.924 162.874 941.346 163.06C943.803 165.48 945.997 168.097 947.89 170.868C951.112 175.691 953.354 180.911 954.498 186.254C945.614 187.567 933.418 188.654 925.918 186.414C913.303 182.637 904.441 172.071 879.681 165.663Z" fill="#5C1FA8"/>
<path d="M982.859 146.865C981.987 145.566 980.731 144.485 979.252 143.757C977.773 143.029 976.137 142.688 974.55 142.776C972.963 142.864 971.497 143.378 970.337 144.252C969.177 145.127 968.376 146.323 968.034 147.689C967.692 149.055 967.825 150.53 968.416 151.928C969.007 153.325 970.029 154.582 971.354 155.54C972.679 156.498 974.247 157.113 975.859 157.309C977.471 157.504 979.056 157.271 980.412 156.638C981.317 156.221 982.099 155.636 982.712 154.918C983.325 154.199 983.758 153.362 983.986 152.453C984.213 151.544 984.231 150.583 984.037 149.624C983.844 148.664 983.444 147.727 982.859 146.865Z" fill="#5C1FA8"/>
<path d="M888.424 181.184C883.629 187.858 871.577 191.156 861.607 192.871C860.593 188.226 860.433 183.552 861.132 179.041C873.669 175.745 895.044 171.938 888.424 181.184Z" fill="#5C1FA8" fill-opacity="0.79"/>
<path d="M954.736 202.284C953.79 206.769 951.987 210.99 949.402 214.772C938.65 213.274 931.655 209.606 917.934 209.936C905.937 210.225 889.976 216.506 880.224 220.898C875.459 217.343 871.375 213.098 868.18 208.379C867.754 207.711 867.346 207.072 866.921 206.404C878.798 201.966 891.558 199.22 904.784 198.254C923.795 196.756 938.01 203.567 954.736 202.284Z" fill="#5C1FA8"/>
<path d="M815.592 240.875C814.935 239.897 813.989 239.083 812.875 238.535C811.76 237.987 810.527 237.731 809.332 237.799C808.137 237.866 807.034 238.255 806.162 238.915C805.289 239.575 804.688 240.477 804.432 241.507C804.177 242.537 804.28 243.648 804.729 244.7C805.177 245.752 805.95 246.697 806.95 247.416C807.95 248.135 809.132 248.595 810.347 248.738C811.561 248.881 812.754 248.701 813.773 248.22C814.45 247.905 815.034 247.464 815.493 246.923C815.951 246.382 816.274 245.753 816.443 245.07C816.612 244.388 816.624 243.666 816.478 242.946C816.332 242.226 816.031 241.522 815.592 240.875Z" fill="#6333A2" fill-opacity="0.74"/>
<path d="M11.2987 49.0337V37.123H94.4564V49.0337H59.5908V148H46.1643V49.0337H11.2987ZM115.178 148V37.123H128.605V86.4979H187.725V37.123H201.151V148H187.725V98.4085H128.605V148H115.178ZM228.031 148V37.123H294.947V49.0337H241.458V86.4979H291.482V98.4085H241.458V136.089H295.813V148H228.031ZM422.661 64.8423C422.012 59.3562 419.377 55.0972 414.757 52.0654C410.137 49.0337 404.471 47.5178 397.757 47.5178C392.849 47.5178 388.554 48.3118 384.872 49.8999C381.227 51.488 378.376 53.6716 376.318 56.4507C374.297 59.2299 373.287 62.388 373.287 65.9251C373.287 68.8847 373.99 71.4292 375.398 73.5587C376.842 75.6521 378.682 77.4026 380.92 78.8102C383.158 80.1817 385.504 81.3186 387.958 82.2209C390.413 83.0872 392.668 83.791 394.726 84.3324L405.987 87.3642C408.874 88.1221 412.086 89.1688 415.623 90.5042C419.196 91.8397 422.607 93.6623 425.856 95.9723C429.14 98.2461 431.847 101.17 433.976 104.743C436.106 108.316 437.171 112.701 437.171 117.899C437.171 123.89 435.601 129.304 432.461 134.14C429.357 138.977 424.809 142.821 418.818 145.672C412.862 148.523 405.626 149.949 397.108 149.949C389.167 149.949 382.292 148.668 376.481 146.105C370.706 143.543 366.158 139.969 362.838 135.386C359.553 130.802 357.694 125.478 357.261 119.415H371.121C371.482 123.601 372.889 127.066 375.344 129.809C377.834 132.516 380.974 134.537 384.764 135.873C388.59 137.172 392.704 137.822 397.108 137.822C402.233 137.822 406.835 136.992 410.913 135.331C414.992 133.635 418.222 131.289 420.604 128.293C422.986 125.262 424.177 121.724 424.177 117.682C424.177 114.001 423.149 111.005 421.091 108.695C419.034 106.385 416.327 104.508 412.97 103.065C409.614 101.621 405.987 100.358 402.089 99.2748L388.445 95.3768C379.783 92.8864 372.926 89.3312 367.873 84.7113C362.82 80.0915 360.293 74.0459 360.293 66.5747C360.293 60.3668 361.971 54.9529 365.328 50.333C368.721 45.677 373.268 42.0678 378.971 39.5052C384.71 36.9065 391.116 35.6071 398.191 35.6071C405.337 35.6071 411.689 36.8884 417.247 39.451C422.806 41.9775 427.209 45.4424 430.457 49.8457C433.742 54.2491 435.474 59.2479 435.655 64.8423H422.661ZM459.246 148V37.123H496.71C505.409 37.123 512.519 38.6931 518.041 41.8331C523.599 44.9371 527.714 49.1419 530.385 54.4476C533.056 59.7532 534.391 65.6724 534.391 72.2052C534.391 78.738 533.056 84.6753 530.385 90.017C527.75 95.3587 523.672 99.6177 518.149 102.794C512.627 105.934 505.553 107.504 496.927 107.504H470.074V95.5933H496.494C502.449 95.5933 507.231 94.5647 510.841 92.5074C514.45 90.4501 517.067 87.671 518.691 84.17C520.351 80.6329 521.181 76.6446 521.181 72.2052C521.181 67.7658 520.351 63.7956 518.691 60.2946C517.067 56.7936 514.432 54.0505 510.786 52.0654C507.141 50.0443 502.305 49.0337 496.277 49.0337H472.672V148H459.246ZM549.252 148H535.176L575.889 37.123H589.748L630.461 148H616.385L583.252 54.6641H582.385L549.252 148ZM554.45 104.689H611.187V116.599H554.45V104.689ZM731.742 71.7721H718.315C717.521 67.9102 716.132 64.5174 714.147 61.5939C712.198 58.6704 709.815 56.2161 707 54.231C704.221 52.2098 701.135 50.6939 697.742 49.6833C694.35 48.6727 690.813 48.1674 687.131 48.1674C680.418 48.1674 674.336 49.8638 668.886 53.2565C663.472 56.6492 659.159 61.6481 655.947 68.2531C652.771 74.858 651.183 82.9608 651.183 92.5615C651.183 102.162 652.771 110.265 655.947 116.87C659.159 123.475 663.472 128.474 668.886 131.867C674.336 135.259 680.418 136.956 687.131 136.956C690.813 136.956 694.35 136.45 697.742 135.44C701.135 134.429 704.221 132.931 707 130.946C709.815 128.925 712.198 126.453 714.147 123.529C716.132 120.57 717.521 117.177 718.315 113.351H731.742C730.731 119.018 728.89 124.089 726.22 128.564C723.549 133.04 720.228 136.847 716.258 139.987C712.288 143.091 707.83 145.455 702.886 147.08C697.977 148.704 692.725 149.516 687.131 149.516C677.675 149.516 669.265 147.206 661.902 142.586C654.539 137.966 648.746 131.397 644.524 122.879C640.301 114.362 638.189 104.256 638.189 92.5615C638.189 80.8675 640.301 70.7615 644.524 62.2436C648.746 53.7257 654.539 47.1568 661.902 42.537C669.265 37.9171 677.675 35.6071 687.131 35.6071C692.725 35.6071 697.977 36.4192 702.886 38.0434C707.83 39.6676 712.288 42.0497 716.258 45.1898C720.228 48.2938 723.549 52.0835 726.22 56.559C728.89 60.9984 730.731 66.0694 731.742 71.7721ZM753.438 148V37.123H820.354V49.0337H766.864V86.4979H816.889V98.4085H766.864V136.089H821.22V148H753.438ZM844.554 148V37.123H857.981V136.089H909.521V148H844.554ZM941.856 148H927.78L968.492 37.123H982.352L1023.06 148H1008.99L975.855 54.6641H974.989L941.856 148ZM947.053 104.689H1003.79V116.599H947.053V104.689ZM1040.33 148V37.123H1079.1C1086.82 37.123 1093.19 38.4585 1098.21 41.1293C1103.23 43.7641 1106.96 47.3192 1109.42 51.7948C1111.87 56.2342 1113.1 61.1608 1113.1 66.5747C1113.1 71.339 1112.25 75.2731 1110.55 78.3771C1108.89 81.481 1106.69 83.9354 1103.95 85.74C1101.24 87.5446 1098.3 88.8801 1095.12 89.7463V90.8291C1098.52 91.0456 1101.93 92.2367 1105.36 94.4023C1108.78 96.5678 1111.65 99.6718 1113.96 103.714C1116.27 107.757 1117.43 112.701 1117.43 118.548C1117.43 124.107 1116.17 129.105 1113.64 133.545C1111.11 137.984 1107.12 141.503 1101.67 144.102C1096.22 146.701 1089.13 148 1080.4 148H1040.33ZM1053.76 136.089H1080.4C1089.17 136.089 1095.39 134.393 1099.08 131C1102.79 127.571 1104.65 123.421 1104.65 118.548C1104.65 114.795 1103.7 111.33 1101.78 108.154C1099.87 104.941 1097.14 102.379 1093.61 100.466C1090.07 98.5168 1085.88 97.5423 1081.05 97.5423H1053.76V136.089ZM1053.76 85.8483H1078.67C1082.71 85.8483 1086.35 85.0542 1089.6 83.4661C1092.89 81.8781 1095.48 79.6403 1097.4 76.7529C1099.35 73.8655 1100.32 70.4728 1100.32 66.5747C1100.32 61.7022 1098.62 57.5696 1095.23 54.1769C1091.84 50.7481 1086.46 49.0337 1079.1 49.0337H1053.76V85.8483Z" fill="white"/>
<path d="M332.591 168.909V198H329.182L313.33 175.159H313.045V198H309.523V168.909H312.932L328.841 191.807H329.125V168.909H332.591ZM392.185 183.455C392.185 186.523 391.631 189.174 390.523 191.409C389.415 193.644 387.896 195.367 385.964 196.58C384.032 197.792 381.826 198.398 379.344 198.398C376.863 198.398 374.657 197.792 372.725 196.58C370.793 195.367 369.273 193.644 368.165 191.409C367.058 189.174 366.504 186.523 366.504 183.455C366.504 180.386 367.058 177.735 368.165 175.5C369.273 173.265 370.793 171.542 372.725 170.33C374.657 169.117 376.863 168.511 379.344 168.511C381.826 168.511 384.032 169.117 385.964 170.33C387.896 171.542 389.415 173.265 390.523 175.5C391.631 177.735 392.185 180.386 392.185 183.455ZM388.776 183.455C388.776 180.936 388.355 178.81 387.512 177.077C386.679 175.344 385.547 174.032 384.117 173.142C382.697 172.252 381.106 171.807 379.344 171.807C377.583 171.807 375.987 172.252 374.558 173.142C373.137 174.032 372.005 175.344 371.163 177.077C370.329 178.81 369.913 180.936 369.913 183.455C369.913 185.973 370.329 188.099 371.163 189.832C372.005 191.565 373.137 192.877 374.558 193.767C375.987 194.657 377.583 195.102 379.344 195.102C381.106 195.102 382.697 194.657 384.117 193.767C385.547 192.877 386.679 191.565 387.512 189.832C388.355 188.099 388.776 185.973 388.776 183.455ZM449.177 168.909V198H445.768L429.915 175.159H429.631V198H426.109V168.909H429.518L445.427 191.807H445.711V168.909H449.177ZM484.226 198V168.909H494.055C496.338 168.909 498.203 169.321 499.652 170.145C501.11 170.959 502.19 172.062 502.891 173.455C503.591 174.847 503.942 176.4 503.942 178.114C503.942 179.828 503.591 181.385 502.891 182.787C502.199 184.188 501.129 185.306 499.68 186.139C498.232 186.963 496.375 187.375 494.112 187.375H487.067V184.25H493.999C495.561 184.25 496.816 183.98 497.763 183.44C498.71 182.901 499.396 182.171 499.822 181.253C500.258 180.325 500.476 179.278 500.476 178.114C500.476 176.949 500.258 175.907 499.822 174.989C499.396 174.07 498.705 173.35 497.749 172.83C496.792 172.299 495.523 172.034 493.942 172.034H487.749V198H484.226ZM537.616 198V168.909H547.446C549.719 168.909 551.584 169.297 553.043 170.074C554.501 170.841 555.58 171.897 556.281 173.241C556.982 174.586 557.332 176.116 557.332 177.83C557.332 179.544 556.982 181.063 556.281 182.389C555.58 183.715 554.506 184.757 553.057 185.514C551.608 186.262 549.757 186.636 547.503 186.636H539.548V183.455H547.389C548.942 183.455 550.192 183.227 551.139 182.773C552.096 182.318 552.787 181.674 553.213 180.841C553.649 179.998 553.866 178.994 553.866 177.83C553.866 176.665 553.649 175.647 553.213 174.776C552.777 173.904 552.081 173.232 551.125 172.759C550.169 172.276 548.904 172.034 547.332 172.034H541.139V198H537.616ZM551.31 184.932L558.469 198H554.378L547.332 184.932H551.31ZM615.748 183.455C615.748 186.523 615.194 189.174 614.086 191.409C612.978 193.644 611.458 195.367 609.526 196.58C607.594 197.792 605.388 198.398 602.907 198.398C600.426 198.398 598.219 197.792 596.288 196.58C594.356 195.367 592.836 193.644 591.728 191.409C590.62 189.174 590.066 186.523 590.066 183.455C590.066 180.386 590.62 177.735 591.728 175.5C592.836 173.265 594.356 171.542 596.288 170.33C598.219 169.117 600.426 168.511 602.907 168.511C605.388 168.511 607.594 169.117 609.526 170.33C611.458 171.542 612.978 173.265 614.086 175.5C615.194 177.735 615.748 180.386 615.748 183.455ZM612.339 183.455C612.339 180.936 611.917 178.81 611.075 177.077C610.241 175.344 609.11 174.032 607.68 173.142C606.259 172.252 604.668 171.807 602.907 171.807C601.146 171.807 599.55 172.252 598.12 173.142C596.7 174.032 595.568 175.344 594.725 177.077C593.892 178.81 593.475 180.936 593.475 183.455C593.475 185.973 593.892 188.099 594.725 189.832C595.568 191.565 596.7 192.877 598.12 193.767C599.55 194.657 601.146 195.102 602.907 195.102C604.668 195.102 606.259 194.657 607.68 193.767C609.11 192.877 610.241 191.565 611.075 189.832C611.917 188.099 612.339 185.973 612.339 183.455ZM649.671 198V168.909H667.114V172.034H653.194V181.864H665.808V184.989H653.194V198H649.671ZM704.67 168.909V198H701.148V168.909H704.67ZM738.143 172.034V168.909H759.961V172.034H750.813V198H747.29V172.034H738.143Z" fill="white"/>
</svg>
