<svg width="2116" height="102" viewBox="0 0 2116 102" fill="none" xmlns="http://www.w3.org/2000/svg">
<path d="M619.028 41.4173C642.062 41.8214 654.344 51.0177 654.038 68.9816C653.682 89.1497 641.743 101.016 612.905 100.513L0 98.9828V74.5533L615.612 75.239C622.542 75.3615 625.677 73.3532 625.775 68.1979C625.861 63.1896 622.787 61.0711 615.869 60.9609L564.414 60.067C540.107 59.6384 529.135 48.1155 529.429 31.1802C529.747 12.6284 541.833 0.762663 570.524 1.26472L652.642 2.69743L633.392 27.9841L567.806 26.8331C561.022 26.7106 557.74 28.425 557.654 33.4333C557.568 38.4417 560.789 40.4132 567.573 40.5234L619.028 41.4173Z" fill="white"/>
<path d="M749.197 75.2391L699.725 74.3697L699.284 99.5462L670.165 99.0319L671.047 48.6789L752.466 50.0994C761.515 50.2586 766.818 45.789 766.94 39.0173C767.063 32.0987 761.907 27.7394 752.858 27.5802L671.439 26.1597L691.252 0.885254L750.617 1.92611C779.871 2.44042 796.721 17.7594 796.329 39.6908C795.949 61.4753 778.586 75.7534 749.197 75.2391Z" fill="white"/>
<path d="M854.09 99.5584L872.201 74.5411L895.944 74.9575C901.602 75.0554 908.239 75.1779 912.757 75.5452C910.271 71.9696 906.426 65.8592 903.39 61.0957L886.883 34.7437L841.355 99.338L806.725 98.738L868.919 10.7183C872.972 5.04865 878.862 -0.15563 888.046 0.00355978C896.814 0.16275 902.52 5.12212 906.512 11.3673L964.041 101.481L854.077 99.5584H854.09Z" fill="white"/>
<path d="M1099.22 75.9003L1079.98 100.893L1032.49 100.06C999.7 99.4849 975.907 77.4187 976.409 48.8625C976.911 20.0002 1001.43 0.995353 1034.22 1.57089L1100.52 2.7342L1081.27 28.0209L1033.78 27.1882C1017.95 26.9066 1005.91 36.5681 1005.65 50.6993C1005.41 64.6835 1016.97 74.4553 1032.95 74.737L1099.24 75.9003H1099.22Z" fill="white"/>
<path d="M1223.2 75.8148L1203.96 100.808L1112.93 99.2157L1114.65 0.713928L1224.19 2.62421L1204.81 27.9109L1143.61 26.8455L1143.4 38.6256L1218.32 39.9358L1201.11 62.0265L1143.02 61.0101L1142.79 74.4066L1223.21 75.8148H1223.2Z" fill="white"/>
<path d="M1397.81 75.7533L1378.42 100.746L1294.89 99.2889L1296.6 0.787109L1325.86 1.30141L1324.58 74.4797L1397.8 75.7655L1397.81 75.7533Z" fill="white"/>
<path d="M1451.11 99.5584L1469.22 74.5411L1492.97 74.9575C1498.63 75.0554 1505.26 75.1779 1509.78 75.5452C1507.29 71.9696 1503.45 65.8592 1500.41 61.0957L1483.91 34.7437L1438.38 99.338L1403.75 98.738L1465.94 10.7183C1470 5.04865 1475.89 -0.15563 1485.07 0.00355978C1493.84 0.16275 1499.54 5.12212 1503.54 11.3673L1561.06 101.481L1451.1 99.5584H1451.11Z" fill="white"/>
<path d="M1697.58 72.484C1697.29 88.8315 1688.45 101.04 1658.62 100.526L1575.51 99.0687L1576.55 39.1398L1660.23 40.597C1664.46 40.6705 1668.46 39.1153 1668.54 34.1192C1668.63 29.2578 1664.55 27.7149 1660.45 27.6414L1576.77 26.1842L1597.02 0.90979L2116 1.99963V31.6702C2116 31.9028 1696.34 29.6864 1696.34 29.8946C1696.13 41.5277 1689.67 47.8953 1683.11 50.2831C1691.27 52.9281 1697.78 60.7039 1697.58 72.484ZM1605.6 60.7162L1605.37 74.2596L1659.22 75.2024C1665.58 75.3127 1668.31 73.0105 1668.39 68.443C1668.47 64.1694 1665.82 61.7693 1659.47 61.6591L1605.61 60.7162H1605.6Z" fill="white"/>
</svg>
