<svg width="26" height="26" viewBox="0 0 26 26" fill="none" xmlns="http://www.w3.org/2000/svg">
<g clip-path="url(#clip0_682_1034)">
<path d="M13.0993 0.541229C6.21704 0.541229 0.637573 6.12054 0.637573 13.0028C0.637573 19.8854 6.21704 25.4643 13.0993 25.4643C19.9824 25.4643 25.5612 19.8854 25.5612 13.0028C25.5612 6.12099 19.9824 0.541824 13.0992 0.541824L13.0993 0.541229ZM18.8142 18.5144C18.591 18.8805 18.1118 18.9966 17.7458 18.7719C14.8199 16.9847 11.1365 16.5799 6.79873 17.571C6.38073 17.6662 5.96406 17.4043 5.86882 16.9862C5.77314 16.568 6.034 16.1513 6.45305 16.0561C11.2001 14.9711 15.2719 15.4385 18.5568 17.446C18.9228 17.6707 19.0389 18.1484 18.8142 18.5144ZM20.3395 15.1208C20.0583 15.5784 19.46 15.7228 19.0032 15.4415C15.6535 13.3821 10.5474 12.7859 6.58534 13.9885C6.0715 14.1438 5.52879 13.8542 5.37284 13.3412C5.21808 12.8274 5.50781 12.2857 6.02076 12.1295C10.5465 10.7563 16.1728 11.4214 20.0196 13.7853C20.4764 14.0665 20.6208 14.6647 20.3395 15.121V15.1208ZM20.4705 11.5875C16.4541 9.20194 9.8276 8.9826 5.99293 10.1464C5.37716 10.3332 4.72597 9.98557 4.53936 9.3698C4.35275 8.75373 4.70007 8.10298 5.31629 7.91578C9.71823 6.57947 17.0359 6.83766 21.66 9.58274C22.2151 9.91147 22.3967 10.6268 22.0678 11.1799C21.7404 11.7338 21.0231 11.9164 20.4711 11.5875H20.4705Z" fill="#1ED760"/>
</g>
<defs>
<clipPath id="clip0_682_1034">
<rect width="25" height="25" fill="white" transform="translate(0.599976 0.5)"/>
</clipPath>
</defs>
</svg>
